<?xml version="1.0" encoding="UTF-8"?>
<svg xmlns="http://www.w3.org/2000/svg" xmlns:xlink="http://www.w3.org/1999/xlink" width="165pt" height="82.499998pt" viewBox="0 0 165 82.499998" version="1.2">
<defs>
<clipPath id="clip1">
  <path d="M 0.496094 0 L 164.503906 0 L 164.503906 82.003906 L 0.496094 82.003906 Z M 0.496094 0 "/>
</clipPath>
<clipPath id="clip2">
  <path d="M 120 33.726562 L 124 33.726562 L 124 46 L 120 46 Z M 120 33.726562 "/>
</clipPath>
<clipPath id="clip3">
  <path d="M 28 33.726562 L 42 33.726562 L 42 48.636719 L 28 48.636719 Z M 28 33.726562 "/>
</clipPath>
<clipPath id="clip4">
  <path d="M 126 33.726562 L 133 33.726562 L 133 48.636719 L 126 48.636719 Z M 126 33.726562 "/>
</clipPath>
<clipPath id="clip5">
  <path d="M 133 33.726562 L 140 33.726562 L 140 48.636719 L 133 48.636719 Z M 133 33.726562 "/>
</clipPath>
<clipPath id="clip6">
  <path d="M 60 40 L 72 40 L 72 48.636719 L 60 48.636719 Z M 60 40 "/>
</clipPath>
<clipPath id="clip7">
  <path d="M 60 33.726562 L 72 33.726562 L 72 40 L 60 40 Z M 60 33.726562 "/>
</clipPath>
<clipPath id="clip8">
  <path d="M 44 33.726562 L 58 33.726562 L 58 48.636719 L 44 48.636719 Z M 44 33.726562 "/>
</clipPath>
<clipPath id="clip9">
  <path d="M 9 40 L 18 40 L 18 48.636719 L 9 48.636719 Z M 9 40 "/>
</clipPath>
<clipPath id="clip10">
  <path d="M 9 33.726562 L 21 33.726562 L 21 41 L 9 41 Z M 9 33.726562 "/>
</clipPath>
<clipPath id="clip11">
  <path d="M 147 33.726562 L 156 33.726562 L 156 48.636719 L 147 48.636719 Z M 147 33.726562 "/>
</clipPath>
<clipPath id="clip12">
  <path d="M 142 33.726562 L 148 33.726562 L 148 37 L 142 37 Z M 142 33.726562 "/>
</clipPath>
<clipPath id="clip13">
  <path d="M 28 46 L 32 46 L 32 48.636719 L 28 48.636719 Z M 28 46 "/>
</clipPath>
<clipPath id="clip14">
  <path d="M 120 46 L 124 46 L 124 48.636719 L 120 48.636719 Z M 120 46 "/>
</clipPath>
<clipPath id="clip15">
  <path d="M 90 46 L 93 46 L 93 48.636719 L 90 48.636719 Z M 90 46 "/>
</clipPath>
<clipPath id="clip16">
  <path d="M 54 33.726562 L 57 33.726562 L 57 37 L 54 37 Z M 54 33.726562 "/>
</clipPath>
<clipPath id="clip17">
  <path d="M 74 33.726562 L 78 33.726562 L 78 37 L 74 37 Z M 74 33.726562 "/>
</clipPath>
<clipPath id="clip18">
  <path d="M 90 33.726562 L 103 33.726562 L 103 46 L 90 46 Z M 90 33.726562 "/>
</clipPath>
<clipPath id="clip19">
  <path d="M 74 37 L 78 37 L 78 48.636719 L 74 48.636719 Z M 74 37 "/>
</clipPath>
<clipPath id="clip20">
  <path d="M 77 33.726562 L 87 33.726562 L 87 48.636719 L 77 48.636719 Z M 77 33.726562 "/>
</clipPath>
<clipPath id="clip21">
  <path d="M 23 33.726562 L 26 33.726562 L 26 48.636719 L 23 48.636719 Z M 23 33.726562 "/>
</clipPath>
<clipPath id="clip22">
  <path d="M 105 33.726562 L 108 33.726562 L 108 48.636719 L 105 48.636719 Z M 105 33.726562 "/>
</clipPath>
<clipPath id="clip23">
  <path d="M 108 33.726562 L 118 33.726562 L 118 48.636719 L 108 48.636719 Z M 108 33.726562 "/>
</clipPath>
</defs>
<g id="surface1">
<g clip-path="url(#clip1)" clip-rule="nonzero">
<path style=" stroke:none;fill-rule:nonzero;fill:rgb(100%,100%,100%);fill-opacity:1;" d="M 0.496094 0 L 164.503906 0 L 164.503906 89.457031 L 0.496094 89.457031 Z M 0.496094 0 "/>
<path style=" stroke:none;fill-rule:nonzero;fill:rgb(100%,100%,100%);fill-opacity:1;" d="M 0.496094 0 L 164.503906 0 L 164.503906 82.003906 L 0.496094 82.003906 Z M 0.496094 0 "/>
<path style=" stroke:none;fill-rule:nonzero;fill:rgb(100%,100%,100%);fill-opacity:1;" d="M 0.496094 0 L 164.503906 0 L 164.503906 82.003906 L 0.496094 82.003906 Z M 0.496094 0 "/>
</g>
<g clip-path="url(#clip2)" clip-rule="nonzero">
<path style=" stroke:none;fill-rule:nonzero;fill:rgb(100%,22.349548%,29.40979%);fill-opacity:1;" d="M 121.929688 45.425781 C 122.59375 45.425781 123.132812 44.859375 123.132812 44.164062 L 123.132812 35.058594 C 123.132812 34.359375 122.589844 33.796875 121.929688 33.796875 C 121.265625 33.796875 120.726562 34.363281 120.726562 35.058594 L 120.726562 44.164062 C 120.726562 44.863281 121.261719 45.425781 121.929688 45.425781 Z M 121.929688 45.425781 "/>
</g>
<g clip-path="url(#clip3)" clip-rule="nonzero">
<path style=" stroke:none;fill-rule:nonzero;fill:rgb(100%,22.349548%,29.40979%);fill-opacity:1;" d="M 40.285156 33.796875 C 39.621094 33.796875 39.082031 34.363281 39.082031 35.058594 L 39.082031 44.246094 L 31.023438 34.242188 C 30.699219 33.839844 30.164062 33.691406 29.691406 33.875 C 29.21875 34.054688 28.902344 34.53125 28.902344 35.058594 L 28.902344 44.160156 C 28.902344 44.859375 29.441406 45.421875 30.105469 45.421875 C 30.769531 45.421875 31.308594 44.855469 31.308594 44.160156 L 31.308594 38.511719 L 39.367188 48.515625 C 39.601562 48.804688 39.9375 48.960938 40.285156 48.960938 C 40.421875 48.960938 40.566406 48.9375 40.699219 48.886719 C 41.171875 48.703125 41.488281 48.230469 41.488281 47.699219 L 41.488281 35.058594 C 41.488281 34.363281 40.949219 33.796875 40.285156 33.796875 Z M 40.285156 33.796875 "/>
</g>
<g clip-path="url(#clip4)" clip-rule="nonzero">
<path style=" stroke:none;fill-rule:nonzero;fill:rgb(100%,22.349548%,29.40979%);fill-opacity:1;" d="M 128.863281 34.242188 C 128.535156 33.839844 128.003906 33.691406 127.53125 33.875 C 127.058594 34.054688 126.742188 34.53125 126.742188 35.058594 L 126.742188 47.699219 C 126.742188 48.398438 127.28125 48.960938 127.945312 48.960938 C 128.609375 48.960938 129.148438 48.394531 129.148438 47.699219 L 129.148438 38.511719 L 130.871094 40.648438 C 131.300781 41.179688 132.058594 41.25 132.566406 40.796875 C 133.074219 40.347656 133.136719 39.550781 132.707031 39.015625 Z M 128.863281 34.242188 "/>
</g>
<g clip-path="url(#clip5)" clip-rule="nonzero">
<path style=" stroke:none;fill-rule:nonzero;fill:rgb(100%,22.349548%,29.40979%);fill-opacity:1;" d="M 138.125 33.796875 C 137.460938 33.796875 136.921875 34.363281 136.921875 35.058594 L 136.921875 44.246094 L 135.199219 42.109375 C 134.769531 41.578125 134.011719 41.507812 133.503906 41.960938 C 132.996094 42.410156 132.933594 43.210938 133.363281 43.742188 L 137.207031 48.511719 C 137.441406 48.800781 137.777344 48.960938 138.125 48.960938 C 138.261719 48.960938 138.402344 48.933594 138.539062 48.882812 C 139.011719 48.703125 139.328125 48.226562 139.328125 47.695312 L 139.328125 35.058594 C 139.328125 34.363281 138.789062 33.796875 138.125 33.796875 Z M 138.125 33.796875 "/>
</g>
<g clip-path="url(#clip6)" clip-rule="nonzero">
<path style=" stroke:none;fill-rule:nonzero;fill:rgb(100%,22.349548%,29.40979%);fill-opacity:1;" d="M 70.1875 46.433594 L 62.589844 46.433594 L 62.589844 44.445312 C 62.589844 43.453125 63.359375 42.644531 64.304688 42.644531 L 67.160156 42.644531 C 67.824219 42.644531 68.363281 42.074219 68.363281 41.378906 C 68.363281 40.679688 67.824219 40.117188 67.160156 40.117188 L 64.304688 40.117188 C 62.03125 40.117188 60.179688 42.058594 60.179688 44.445312 L 60.179688 47.699219 C 60.179688 48.398438 60.71875 48.960938 61.382812 48.960938 L 70.1875 48.960938 C 70.851562 48.960938 71.390625 48.394531 71.390625 47.699219 C 71.390625 47 70.851562 46.433594 70.1875 46.433594 Z M 70.1875 46.433594 "/>
</g>
<g clip-path="url(#clip7)" clip-rule="nonzero">
<path style=" stroke:none;fill-rule:nonzero;fill:rgb(100%,22.349548%,29.40979%);fill-opacity:1;" d="M 70.1875 33.796875 L 61.386719 33.796875 C 60.71875 33.796875 60.183594 34.363281 60.183594 35.058594 L 60.183594 38.277344 C 60.183594 38.976562 60.722656 39.542969 61.386719 39.542969 C 62.046875 39.542969 62.589844 38.976562 62.589844 38.277344 L 62.589844 36.324219 L 70.1875 36.324219 C 70.855469 36.324219 71.390625 35.757812 71.390625 35.058594 C 71.390625 34.363281 70.851562 33.796875 70.1875 33.796875 Z M 70.1875 33.796875 "/>
</g>
<g clip-path="url(#clip8)" clip-rule="nonzero">
<path style=" stroke:none;fill-rule:nonzero;fill:rgb(100%,22.349548%,29.40979%);fill-opacity:1;" d="M 57.210938 44.445312 C 57.210938 42.058594 55.359375 40.117188 53.085938 40.117188 C 52.421875 40.117188 51.882812 40.683594 51.882812 41.378906 C 51.882812 42.078125 52.425781 42.644531 53.085938 42.644531 C 54.035156 42.644531 54.804688 43.453125 54.804688 44.445312 L 54.804688 46.433594 L 51.625 46.433594 C 48.96875 46.433594 46.808594 44.167969 46.808594 41.378906 C 46.808594 38.589844 48.96875 36.324219 51.625 36.324219 L 52.117188 36.324219 C 52.785156 36.324219 53.320312 35.757812 53.320312 35.058594 C 53.320312 34.363281 52.78125 33.796875 52.117188 33.796875 L 51.625 33.796875 C 47.644531 33.796875 44.40625 37.199219 44.40625 41.378906 C 44.40625 45.558594 47.644531 48.960938 51.625 48.960938 L 56.023438 48.960938 C 56.6875 48.960938 57.222656 48.394531 57.222656 47.699219 C 57.222656 47.640625 57.222656 47.582031 57.214844 47.523438 L 57.214844 44.445312 Z M 57.210938 44.445312 "/>
</g>
<g clip-path="url(#clip9)" clip-rule="nonzero">
<path style=" stroke:none;fill-rule:nonzero;fill:rgb(100%,22.349548%,29.40979%);fill-opacity:1;" d="M 15.976562 40.117188 L 13.121094 40.117188 C 10.847656 40.117188 9 42.058594 9 44.445312 L 9 47.699219 C 9 48.398438 9.539062 48.960938 10.203125 48.960938 C 10.863281 48.960938 11.40625 48.394531 11.40625 47.699219 L 11.40625 44.445312 C 11.40625 43.453125 12.175781 42.644531 13.121094 42.644531 L 15.976562 42.644531 C 16.644531 42.644531 17.179688 42.074219 17.179688 41.378906 C 17.179688 40.679688 16.644531 40.117188 15.976562 40.117188 Z M 15.976562 40.117188 "/>
</g>
<g clip-path="url(#clip10)" clip-rule="nonzero">
<path style=" stroke:none;fill-rule:nonzero;fill:rgb(100%,22.349548%,29.40979%);fill-opacity:1;" d="M 19.007812 33.796875 L 10.203125 33.796875 C 9.539062 33.796875 9 34.363281 9 35.058594 L 9 38.851562 C 9 39.550781 9.539062 40.117188 10.203125 40.117188 C 10.863281 40.117188 11.40625 39.550781 11.40625 38.851562 L 11.40625 36.324219 L 19.003906 36.324219 C 19.671875 36.324219 20.207031 35.757812 20.207031 35.058594 C 20.207031 34.363281 19.671875 33.796875 19.007812 33.796875 Z M 19.007812 33.796875 "/>
</g>
<g clip-path="url(#clip11)" clip-rule="nonzero">
<path style=" stroke:none;fill-rule:nonzero;fill:rgb(100%,22.349548%,29.40979%);fill-opacity:1;" d="M 154.796875 33.796875 L 151.945312 33.796875 C 149.671875 33.796875 147.820312 35.738281 147.820312 38.128906 L 147.820312 47.699219 C 147.820312 48.398438 148.359375 48.960938 149.023438 48.960938 C 149.6875 48.960938 150.226562 48.394531 150.226562 47.699219 L 150.226562 38.128906 C 150.226562 37.132812 150.996094 36.324219 151.941406 36.324219 L 154.796875 36.324219 C 155.464844 36.324219 156 35.757812 156 35.058594 C 156 34.363281 155.460938 33.796875 154.796875 33.796875 Z M 154.796875 33.796875 "/>
</g>
<g clip-path="url(#clip12)" clip-rule="nonzero">
<path style=" stroke:none;fill-rule:nonzero;fill:rgb(100%,22.349548%,29.40979%);fill-opacity:1;" d="M 146.070312 33.796875 L 143.246094 33.796875 C 142.582031 33.796875 142.042969 34.363281 142.042969 35.058594 C 142.042969 35.757812 142.582031 36.324219 143.246094 36.324219 L 146.070312 36.324219 C 146.734375 36.324219 147.273438 35.757812 147.273438 35.058594 C 147.273438 34.363281 146.734375 33.796875 146.070312 33.796875 Z M 146.070312 33.796875 "/>
</g>
<g clip-path="url(#clip13)" clip-rule="nonzero">
<path style=" stroke:none;fill-rule:nonzero;fill:rgb(100%,22.349548%,29.40979%);fill-opacity:1;" d="M 31.375 47.671875 C 31.375 47.851562 31.339844 48.019531 31.277344 48.183594 C 31.210938 48.347656 31.121094 48.492188 31 48.617188 C 30.882812 48.742188 30.746094 48.835938 30.589844 48.90625 C 30.433594 48.972656 30.273438 49.007812 30.105469 49.007812 C 29.933594 49.007812 29.773438 48.972656 29.617188 48.90625 C 29.460938 48.835938 29.324219 48.742188 29.207031 48.617188 C 29.085938 48.492188 28.996094 48.347656 28.929688 48.183594 C 28.867188 48.019531 28.835938 47.851562 28.835938 47.671875 C 28.835938 47.496094 28.867188 47.324219 28.929688 47.164062 C 28.996094 47 29.085938 46.855469 29.207031 46.730469 C 29.324219 46.605469 29.460938 46.507812 29.617188 46.441406 C 29.773438 46.375 29.933594 46.339844 30.105469 46.339844 C 30.273438 46.339844 30.433594 46.375 30.589844 46.441406 C 30.746094 46.507812 30.882812 46.605469 31 46.730469 C 31.121094 46.855469 31.210938 47 31.277344 47.164062 C 31.339844 47.324219 31.375 47.496094 31.375 47.671875 Z M 31.375 47.671875 "/>
</g>
<g clip-path="url(#clip14)" clip-rule="nonzero">
<path style=" stroke:none;fill-rule:nonzero;fill:rgb(100%,22.349548%,29.40979%);fill-opacity:1;" d="M 121.929688 46.339844 C 121.226562 46.339844 120.660156 46.9375 120.660156 47.671875 C 120.660156 48.410156 121.226562 49.007812 121.929688 49.007812 C 122.628906 49.007812 123.199219 48.410156 123.199219 47.671875 C 123.199219 46.9375 122.628906 46.339844 121.929688 46.339844 Z M 121.929688 46.339844 "/>
</g>
<g clip-path="url(#clip15)" clip-rule="nonzero">
<path style=" stroke:none;fill-rule:nonzero;fill:rgb(100%,22.349548%,29.40979%);fill-opacity:1;" d="M 92.601562 47.671875 C 92.601562 47.851562 92.566406 48.019531 92.503906 48.183594 C 92.4375 48.347656 92.347656 48.492188 92.230469 48.617188 C 92.109375 48.742188 91.972656 48.835938 91.816406 48.90625 C 91.660156 48.972656 91.5 49.007812 91.332031 49.007812 C 91.164062 49.007812 91 48.972656 90.84375 48.90625 C 90.691406 48.835938 90.550781 48.742188 90.433594 48.617188 C 90.3125 48.492188 90.222656 48.347656 90.15625 48.183594 C 90.09375 48.019531 90.0625 47.851562 90.0625 47.671875 C 90.0625 47.496094 90.09375 47.324219 90.15625 47.164062 C 90.222656 47 90.3125 46.855469 90.433594 46.730469 C 90.550781 46.605469 90.691406 46.507812 90.84375 46.441406 C 91 46.375 91.164062 46.339844 91.332031 46.339844 C 91.5 46.339844 91.660156 46.375 91.816406 46.441406 C 91.972656 46.507812 92.109375 46.605469 92.230469 46.730469 C 92.347656 46.855469 92.4375 47 92.503906 47.164062 C 92.566406 47.324219 92.601562 47.496094 92.601562 47.671875 Z M 92.601562 47.671875 "/>
</g>
<g clip-path="url(#clip16)" clip-rule="nonzero">
<path style=" stroke:none;fill-rule:nonzero;fill:rgb(100%,22.349548%,29.40979%);fill-opacity:1;" d="M 55.484375 36.394531 C 56.1875 36.394531 56.753906 35.796875 56.753906 35.058594 C 56.753906 34.324219 56.183594 33.726562 55.484375 33.726562 C 54.78125 33.726562 54.214844 34.324219 54.214844 35.058594 C 54.214844 35.796875 54.78125 36.394531 55.484375 36.394531 Z M 55.484375 36.394531 "/>
</g>
<g clip-path="url(#clip17)" clip-rule="nonzero">
<path style=" stroke:none;fill-rule:nonzero;fill:rgb(100%,22.349548%,29.40979%);fill-opacity:1;" d="M 77.082031 35.058594 C 77.082031 35.238281 77.046875 35.40625 76.984375 35.570312 C 76.917969 35.734375 76.828125 35.878906 76.710938 36.003906 C 76.589844 36.128906 76.453125 36.222656 76.296875 36.292969 C 76.140625 36.359375 75.980469 36.394531 75.8125 36.394531 C 75.644531 36.394531 75.480469 36.359375 75.324219 36.292969 C 75.171875 36.222656 75.03125 36.128906 74.914062 36.003906 C 74.792969 35.878906 74.703125 35.734375 74.640625 35.570312 C 74.574219 35.40625 74.542969 35.238281 74.542969 35.058594 C 74.542969 34.882812 74.574219 34.710938 74.640625 34.550781 C 74.703125 34.386719 74.792969 34.242188 74.914062 34.117188 C 75.03125 33.992188 75.171875 33.894531 75.324219 33.828125 C 75.480469 33.761719 75.644531 33.726562 75.8125 33.726562 C 75.980469 33.726562 76.140625 33.761719 76.296875 33.828125 C 76.453125 33.894531 76.589844 33.992188 76.710938 34.117188 C 76.828125 34.242188 76.917969 34.386719 76.984375 34.550781 C 77.046875 34.710938 77.082031 34.882812 77.082031 35.058594 Z M 77.082031 35.058594 "/>
</g>
<g clip-path="url(#clip18)" clip-rule="nonzero">
<path style=" stroke:none;fill-rule:nonzero;fill:rgb(100%,22.349548%,29.40979%);fill-opacity:1;" d="M 97.601562 33.785156 L 94.726562 33.785156 C 94.699219 33.785156 94.679688 33.792969 94.65625 33.792969 L 91.332031 33.792969 C 90.667969 33.792969 90.128906 34.359375 90.128906 35.058594 L 90.128906 38.277344 C 90.128906 38.976562 90.667969 39.539062 91.332031 39.539062 C 91.996094 39.539062 92.535156 38.972656 92.535156 38.277344 L 92.535156 36.324219 L 95.90625 36.324219 C 95.929688 36.324219 95.953125 36.316406 95.976562 36.316406 L 97.601562 36.316406 C 98.828125 36.316406 99.824219 37.363281 99.824219 38.652344 C 99.824219 39.941406 98.828125 40.992188 97.601562 40.992188 L 94.726562 40.992188 C 94.695312 40.992188 94.667969 41 94.640625 41 L 94.253906 41 C 92.574219 41 91.074219 42.054688 90.4375 43.6875 C 90.183594 44.332031 90.480469 45.074219 91.09375 45.335938 C 91.246094 45.402344 91.398438 45.433594 91.550781 45.433594 C 92.027344 45.433594 92.476562 45.136719 92.667969 44.648438 C 92.933594 43.964844 93.558594 43.527344 94.253906 43.527344 L 96.871094 43.527344 C 96.898438 43.527344 96.925781 43.519531 96.957031 43.519531 L 97.601562 43.519531 C 100.15625 43.519531 102.234375 41.335938 102.234375 38.652344 C 102.234375 35.972656 100.152344 33.785156 97.601562 33.785156 Z M 97.601562 33.785156 "/>
</g>
<g clip-path="url(#clip19)" clip-rule="nonzero">
<path style=" stroke:none;fill-rule:nonzero;fill:rgb(100%,22.349548%,29.40979%);fill-opacity:1;" d="M 75.8125 37.320312 C 75.144531 37.320312 74.609375 37.886719 74.609375 38.582031 L 74.609375 47.695312 C 74.609375 48.394531 75.148438 48.960938 75.8125 48.960938 C 76.476562 48.960938 77.015625 48.394531 77.015625 47.695312 L 77.015625 38.582031 C 77.015625 37.886719 76.476562 37.320312 75.8125 37.320312 Z M 75.8125 37.320312 "/>
</g>
<g clip-path="url(#clip20)" clip-rule="nonzero">
<path style=" stroke:none;fill-rule:nonzero;fill:rgb(100%,22.349548%,29.40979%);fill-opacity:1;" d="M 86.707031 38.652344 C 86.707031 35.96875 84.628906 33.785156 82.074219 33.785156 L 79.199219 33.785156 C 78.535156 33.785156 77.996094 34.355469 77.996094 35.050781 C 77.996094 35.746094 78.535156 36.3125 79.199219 36.3125 L 82.074219 36.3125 C 83.300781 36.3125 84.300781 37.363281 84.300781 38.652344 C 84.300781 39.941406 83.300781 40.992188 82.074219 40.992188 L 79.921875 40.992188 C 79.429688 40.992188 78.992188 41.300781 78.804688 41.777344 C 78.621094 42.253906 78.730469 42.796875 79.078125 43.15625 L 84.359375 48.589844 C 84.59375 48.832031 84.898438 48.953125 85.199219 48.953125 C 85.511719 48.953125 85.824219 48.828125 86.058594 48.574219 C 86.523438 48.074219 86.515625 47.273438 86.042969 46.785156 L 82.808594 43.457031 C 85.015625 43.085938 86.707031 41.074219 86.707031 38.652344 Z M 86.707031 38.652344 "/>
</g>
<g clip-path="url(#clip21)" clip-rule="nonzero">
<path style=" stroke:none;fill-rule:nonzero;fill:rgb(100%,22.349548%,29.40979%);fill-opacity:1;" d="M 24.261719 33.867188 C 23.597656 33.867188 23.058594 34.433594 23.058594 35.128906 L 23.058594 47.742188 C 23.058594 48.441406 23.597656 49.007812 24.261719 49.007812 C 24.925781 49.007812 25.464844 48.4375 25.464844 47.742188 L 25.464844 35.128906 C 25.464844 34.433594 24.925781 33.867188 24.261719 33.867188 Z M 24.261719 33.867188 "/>
</g>
<g clip-path="url(#clip22)" clip-rule="nonzero">
<path style=" stroke:none;fill-rule:nonzero;fill:rgb(100%,22.349548%,29.40979%);fill-opacity:1;" d="M 106.300781 33.785156 C 105.636719 33.785156 105.097656 34.355469 105.097656 35.050781 L 105.097656 47.6875 C 105.097656 48.386719 105.636719 48.953125 106.300781 48.953125 C 106.964844 48.953125 107.503906 48.386719 107.503906 47.6875 L 107.503906 35.050781 C 107.503906 34.355469 106.964844 33.785156 106.300781 33.785156 Z M 106.300781 33.785156 "/>
</g>
<g clip-path="url(#clip23)" clip-rule="nonzero">
<path style=" stroke:none;fill-rule:nonzero;fill:rgb(100%,22.349548%,29.40979%);fill-opacity:1;" d="M 117.195312 38.644531 C 117.195312 35.960938 115.117188 33.78125 112.5625 33.78125 L 109.6875 33.78125 C 109.023438 33.78125 108.484375 34.347656 108.484375 35.042969 C 108.484375 35.738281 109.023438 36.308594 109.6875 36.308594 L 112.5625 36.308594 C 113.792969 36.308594 114.789062 37.355469 114.789062 38.644531 C 114.789062 39.933594 113.789062 40.980469 112.5625 40.980469 L 110.410156 40.980469 C 109.921875 40.980469 109.480469 41.292969 109.292969 41.769531 C 109.109375 42.242188 109.21875 42.789062 109.566406 43.148438 L 114.847656 48.582031 C 115.082031 48.824219 115.386719 48.945312 115.6875 48.945312 C 116 48.945312 116.3125 48.816406 116.546875 48.5625 C 117.011719 48.066406 117.003906 47.265625 116.53125 46.777344 L 113.296875 43.449219 C 115.503906 43.078125 117.195312 41.066406 117.195312 38.644531 Z M 117.195312 38.644531 "/>
</g>
</g>
</svg>
