<?xml version="1.0" encoding="UTF-8"?>
<svg xmlns="http://www.w3.org/2000/svg" xmlns:xlink="http://www.w3.org/1999/xlink" width="165pt" height="82.499998pt" viewBox="0 0 165 82.499998" version="1.2">
<defs>
<clipPath id="clip1">
  <path d="M 0.496094 0 L 164.503906 0 L 164.503906 82.003906 L 0.496094 82.003906 Z M 0.496094 0 "/>
</clipPath>
<clipPath id="clip2">
  <path d="M 5.328125 9.570312 L 159.621094 9.570312 L 159.621094 71.960938 L 5.328125 71.960938 Z M 5.328125 9.570312 "/>
</clipPath>
</defs>
<g id="surface1">
<g clip-path="url(#clip1)" clip-rule="nonzero">
<path style=" stroke:none;fill-rule:nonzero;fill:rgb(100%,100%,100%);fill-opacity:1;" d="M 0.496094 0 L 164.503906 0 L 164.503906 89.457031 L 0.496094 89.457031 Z M 0.496094 0 "/>
<path style=" stroke:none;fill-rule:nonzero;fill:rgb(100%,100%,100%);fill-opacity:1;" d="M 0.496094 0 L 164.503906 0 L 164.503906 82.003906 L 0.496094 82.003906 Z M 0.496094 0 "/>
<path style=" stroke:none;fill-rule:nonzero;fill:rgb(100%,100%,100%);fill-opacity:1;" d="M 0.496094 0 L 164.503906 0 L 164.503906 82.003906 L 0.496094 82.003906 Z M 0.496094 0 "/>
</g>
<g clip-path="url(#clip2)" clip-rule="nonzero">
<path style=" stroke:none;fill-rule:nonzero;fill:rgb(100%,100%,100%);fill-opacity:1;" d="M 5.679688 9.570312 L 159.273438 9.570312 L 159.273438 71.960938 L 5.679688 71.960938 Z M 5.679688 9.570312 "/>
</g>
<path style=" stroke:none;fill-rule:nonzero;fill:rgb(19.999695%,19.999695%,19.999695%);fill-opacity:1;" d="M 11.589844 48.324219 C 12.636719 50.503906 14.769531 51.902344 17.457031 51.902344 C 20.996094 51.902344 22.46875 49.527344 22.46875 47.257812 C 22.46875 44.164062 19.78125 42.929688 17.191406 41.789062 C 14.308594 40.488281 11.195312 39.023438 11.195312 35.347656 C 11.195312 32.191406 13.492188 29.722656 17.390625 29.722656 C 20.535156 29.722656 22.503906 31.316406 23.484375 33.820312 L 22.304688 34.375 C 21.648438 32.648438 20.078125 30.953125 17.324219 30.953125 C 14.367188 30.953125 12.507812 32.871094 12.507812 35.308594 C 12.507812 38.246094 15.257812 39.507812 17.617188 40.550781 C 20.796875 41.949219 23.777344 43.445312 23.777344 47.152344 C 23.777344 50.375 21.644531 53.171875 17.449219 53.140625 C 14.203125 53.109375 11.539062 51.429688 10.4375 49.007812 Z M 11.589844 48.324219 "/>
<path style=" stroke:none;fill-rule:nonzero;fill:rgb(19.999695%,19.999695%,19.999695%);fill-opacity:1;" d="M 27.324219 52.816406 L 27.324219 30.039062 L 38.109375 30.039062 L 38.109375 31.273438 L 28.636719 31.273438 L 28.636719 41.882812 L 36.796875 41.882812 L 36.796875 43.117188 L 28.636719 43.117188 L 28.636719 51.578125 L 38.109375 51.578125 L 38.109375 52.816406 Z M 27.324219 52.816406 "/>
<path style=" stroke:none;fill-rule:nonzero;fill:rgb(19.999695%,19.999695%,19.999695%);fill-opacity:1;" d="M 42.53125 52.816406 L 42.53125 30.039062 L 53.3125 30.039062 L 53.3125 31.273438 L 43.855469 31.273438 L 43.855469 41.882812 L 52.011719 41.882812 L 52.011719 43.117188 L 43.855469 43.117188 L 43.855469 51.578125 L 53.3125 51.578125 L 53.3125 52.816406 Z M 42.53125 52.816406 "/>
<path style=" stroke:none;fill-rule:nonzero;fill:rgb(19.999695%,19.999695%,19.999695%);fill-opacity:1;" d="M 57.378906 48.324219 C 58.425781 50.503906 60.554688 51.902344 63.242188 51.902344 C 66.78125 51.902344 68.257812 49.527344 68.257812 47.257812 C 68.257812 44.164062 65.570312 42.929688 62.980469 41.789062 C 60.097656 40.488281 56.984375 39.023438 56.984375 35.347656 C 56.984375 32.191406 59.277344 29.722656 63.179688 29.722656 C 66.324219 29.722656 68.289062 31.316406 69.273438 33.820312 L 68.09375 34.375 C 67.4375 32.648438 65.878906 30.953125 63.113281 30.953125 C 60.15625 30.953125 58.292969 32.871094 58.292969 35.308594 C 58.292969 38.246094 61.046875 39.507812 63.40625 40.550781 C 66.585938 41.949219 69.5625 43.445312 69.5625 47.152344 C 69.5625 50.375 67.433594 53.171875 63.238281 53.140625 C 59.996094 53.109375 57.339844 51.429688 56.226562 49.007812 Z M 57.378906 48.324219 "/>
<path style=" stroke:none;fill-rule:nonzero;fill:rgb(19.999695%,19.999695%,19.999695%);fill-opacity:1;" d="M 83.855469 52.816406 L 82.054688 46.632812 L 73.992188 46.632812 L 72.191406 52.816406 L 70.8125 52.816406 L 77.53125 30.039062 L 78.515625 30.039062 L 85.230469 52.816406 Z M 78.742188 35.179688 C 78.417969 34.007812 78.054688 32.578125 78.054688 32.578125 L 77.988281 32.578125 C 77.988281 32.578125 77.628906 34.007812 77.304688 35.179688 L 74.347656 45.394531 L 81.6875 45.394531 Z M 78.742188 35.179688 "/>
<path style=" stroke:none;fill-rule:nonzero;fill:rgb(19.999695%,19.999695%,19.999695%);fill-opacity:1;" d="M 101.195312 52.816406 L 96.867188 35.601562 C 96.472656 34.007812 96.277344 32.511719 96.277344 32.511719 L 96.210938 32.511719 C 96.210938 32.511719 96.015625 34.007812 95.621094 35.601562 L 91.328125 52.816406 L 90.34375 52.816406 L 84.382812 30.039062 L 85.757812 30.039062 L 90.191406 47.285156 C 90.453125 48.355469 90.816406 50.308594 90.816406 50.308594 L 90.878906 50.308594 C 90.878906 50.308594 91.207031 48.351562 91.46875 47.285156 L 95.761719 30.039062 L 96.714844 30.039062 L 101.039062 47.285156 C 101.332031 48.421875 101.660156 50.308594 101.660156 50.308594 L 101.726562 50.308594 C 101.726562 50.308594 102.054688 48.421875 102.347656 47.285156 L 106.707031 30.039062 L 108.117188 30.039062 L 102.175781 52.816406 Z M 101.195312 52.816406 "/>
<path style=" stroke:none;fill-rule:nonzero;fill:rgb(89.7995%,59.609985%,15.289307%);fill-opacity:1;" d="M 114.242188 21.355469 L 114.046875 36.25 C 114.046875 36.742188 114.046875 37.550781 114.066406 37.964844 L 115.144531 38.359375 L 129.921875 43.21875 C 130.289062 43.328125 131.152344 43.527344 131.535156 43.613281 L 114.261719 19.476562 C 114.253906 20.113281 114.242188 21.09375 114.242188 21.355469 Z M 114.242188 21.355469 "/>
<path style=" stroke:none;fill-rule:nonzero;fill:rgb(96.859741%,70.199585%,24.308777%);fill-opacity:1;" d="M 140.246094 32.804688 L 116.070312 20.453125 C 115.761719 20.28125 114.839844 19.773438 114.261719 19.449219 L 114.261719 19.464844 L 131.535156 43.601562 C 131.835938 43.300781 132.519531 42.601562 132.800781 42.296875 L 140.574219 34.679688 C 140.820312 34.414062 141.3125 33.929688 141.632812 33.609375 C 141.242188 33.378906 140.648438 33.023438 140.246094 32.804688 Z M 140.246094 32.804688 "/>
<path style=" stroke:none;fill-rule:nonzero;fill:rgb(35.688782%,67.449951%,73.728943%);fill-opacity:1;" d="M 130.710938 45.871094 C 130.34375 45.75 129.578125 45.503906 129.269531 45.378906 L 120.3125 42.652344 C 120.113281 42.601562 119.042969 42.285156 118.519531 42.128906 C 118.3125 42.539062 117.90625 43.328125 117.671875 43.792969 L 112.253906 54.226562 C 112.105469 54.503906 111.867188 54.960938 111.703125 55.300781 L 130.703125 45.867188 Z M 130.710938 45.871094 "/>
<path style=" stroke:none;fill-rule:nonzero;fill:rgb(31.369019%,57.649231%,63.139343%);fill-opacity:1;" d="M 133.539062 59.929688 L 130.988281 47.460938 C 130.910156 47.078125 130.777344 46.269531 130.710938 45.875 L 111.710938 55.300781 L 111.710938 55.3125 C 112.566406 55.628906 113.808594 56.082031 114.089844 56.164062 L 131.847656 61.429688 C 132.261719 61.570312 133.304688 61.882812 133.953125 62.074219 C 133.832031 61.414062 133.640625 60.359375 133.539062 59.929688 Z M 133.539062 59.929688 "/>
<path style=" stroke:none;fill-rule:nonzero;fill:rgb(45.489502%,64.709473%,43.139648%);fill-opacity:1;" d="M 155.78125 46.464844 C 155.449219 46.25 155.042969 45.976562 154.828125 45.871094 L 142.675781 38.265625 L 141.222656 37.242188 C 140.921875 37.511719 140.367188 38.011719 140.054688 38.320312 L 134.140625 44.296875 C 133.882812 44.539062 133.421875 44.996094 133.195312 45.21875 L 133.195312 45.230469 L 155.761719 46.480469 Z M 155.78125 46.464844 "/>
<path style=" stroke:none;fill-rule:nonzero;fill:rgb(51.368713%,72.938538%,48.239136%);fill-opacity:1;" d="M 133.1875 45.230469 C 133.230469 45.453125 133.292969 45.800781 133.3125 45.902344 L 135.457031 55.726562 C 135.546875 56.113281 135.734375 57 135.851562 57.554688 C 136.296875 57.296875 136.96875 56.914062 137.195312 56.800781 L 154.320312 47.285156 C 154.585938 47.140625 155.269531 46.753906 155.753906 46.480469 Z M 133.1875 45.230469 "/>
</g>
</svg>
