<?xml version="1.0" encoding="UTF-8"?>
<svg xmlns="http://www.w3.org/2000/svg" xmlns:xlink="http://www.w3.org/1999/xlink" width="165pt" height="82.499998pt" viewBox="0 0 165 82.499998" version="1.2">
<defs>
<clipPath id="clip1">
  <path d="M 0.496094 0 L 164.503906 0 L 164.503906 82.003906 L 0.496094 82.003906 Z M 0.496094 0 "/>
</clipPath>
<clipPath id="clip2">
  <path d="M 9 20.058594 L 80 20.058594 L 80 61 L 9 61 Z M 9 20.058594 "/>
</clipPath>
<clipPath id="clip3">
  <path d="M 84 20.058594 L 156 20.058594 L 156 61 L 84 61 Z M 84 20.058594 "/>
</clipPath>
</defs>
<g id="surface1">
<g clip-path="url(#clip1)" clip-rule="nonzero">
<path style=" stroke:none;fill-rule:nonzero;fill:rgb(100%,100%,100%);fill-opacity:1;" d="M 0.496094 0 L 164.503906 0 L 164.503906 89.457031 L 0.496094 89.457031 Z M 0.496094 0 "/>
<path style=" stroke:none;fill-rule:nonzero;fill:rgb(100%,100%,100%);fill-opacity:1;" d="M 0.496094 0 L 164.503906 0 L 164.503906 82.003906 L 0.496094 82.003906 Z M 0.496094 0 "/>
<path style=" stroke:none;fill-rule:nonzero;fill:rgb(100%,100%,100%);fill-opacity:1;" d="M 0.496094 0 L 164.503906 0 L 164.503906 82.003906 L 0.496094 82.003906 Z M 0.496094 0 "/>
</g>
<g clip-path="url(#clip2)" clip-rule="nonzero">
<path style=" stroke:none;fill-rule:evenodd;fill:rgb(35.289001%,26.669312%,38.819885%);fill-opacity:0.5961;" d="M 9.257812 27.078125 C 9.480469 24.941406 10.109375 23.320312 11.144531 22.207031 C 12.183594 21.09375 13.800781 20.539062 16.007812 20.539062 C 18.210938 20.539062 19.746094 21.089844 20.609375 22.195312 C 21.085938 22.792969 21.460938 23.390625 21.726562 23.988281 C 22.292969 25.195312 22.585938 28.078125 22.601562 32.632812 L 22.601562 34.847656 L 19.179688 34.847656 L 19.179688 32.386719 C 19.179688 28.921875 19.070312 26.824219 18.84375 26.09375 C 18.621094 25.359375 18.390625 24.808594 18.152344 24.433594 C 17.71875 23.75 16.945312 23.40625 15.828125 23.40625 C 13.5625 23.40625 12.429688 25.515625 12.429688 29.742188 C 12.429688 31.222656 12.574219 32.226562 12.855469 32.753906 C 13.140625 33.285156 13.351562 33.699219 13.492188 34 C 13.632812 34.296875 14.585938 35.328125 16.34375 37.089844 L 18.488281 39.261719 C 21.660156 42.53125 23.246094 46.28125 23.246094 50.515625 C 23.246094 54.75 22.640625 57.535156 21.425781 58.878906 C 20.210938 60.222656 18.414062 60.894531 16.03125 60.894531 C 12.363281 60.894531 10.257812 58.679688 9.703125 54.246094 C 9.511719 52.75 9.414062 50.914062 9.414062 48.734375 L 9.414062 44.636719 L 12.8125 44.636719 L 12.8125 48.667969 C 12.8125 52.222656 13.046875 54.667969 13.515625 56.011719 C 13.984375 57.359375 14.941406 58.03125 16.386719 58.03125 C 17.832031 58.03125 18.753906 57.59375 19.148438 56.71875 C 19.542969 55.84375 19.757812 54.789062 19.796875 53.550781 C 19.832031 52.3125 19.851562 50.980469 19.851562 49.5625 C 19.851562 46.636719 18.695312 44.046875 16.386719 41.792969 L 14.109375 39.621094 C 12.109375 37.664062 10.777344 36.019531 10.105469 34.679688 C 9.4375 33.34375 9.101562 31.988281 9.101562 30.605469 C 9.101562 29.222656 9.152344 28.046875 9.257812 27.078125 Z M 24.703125 21.03125 L 35.8125 21.03125 L 35.8125 23.628906 L 32.125 23.628906 L 32.125 60.449219 L 28.816406 60.449219 L 28.816406 23.628906 L 24.703125 23.628906 Z M 49.625 21.03125 L 53.066406 21.03125 L 46.652344 43.136719 L 46.652344 60.449219 L 43.324219 60.449219 L 43.324219 43.160156 L 36.21875 21.03125 L 39.570312 21.03125 L 44.957031 38.457031 L 45.023438 38.457031 Z M 56.15625 21.03125 L 59.484375 21.03125 L 59.484375 57.804688 L 66.457031 57.804688 L 66.457031 60.449219 L 56.15625 60.449219 Z M 69.410156 21.03125 L 79.804688 21.03125 L 79.804688 23.628906 L 72.742188 23.628906 L 72.742188 39.039062 L 79.378906 39.039062 L 79.378906 41.746094 L 72.742188 41.746094 L 72.742188 57.804688 L 79.734375 57.804688 L 79.734375 60.449219 L 69.410156 60.449219 Z M 69.410156 21.03125 "/>
</g>
<g clip-path="url(#clip3)" clip-rule="nonzero">
<path style=" stroke:none;fill-rule:evenodd;fill:rgb(35.289001%,26.669312%,38.819885%);fill-opacity:1;" d="M 84.632812 32.757812 C 84.363281 31.816406 84.230469 30.6875 84.230469 29.375 C 84.230469 26.523438 84.753906 24.257812 85.804688 22.578125 C 86.855469 20.898438 88.863281 20.058594 91.828125 20.058594 C 95.640625 20.058594 97.890625 21.894531 98.578125 25.566406 C 98.875 27.148438 99.023438 29.144531 99.023438 31.546875 L 99.023438 33.875 L 94.597656 33.875 L 94.597656 31.234375 C 94.597656 28.726562 94.472656 27.039062 94.21875 26.171875 C 93.964844 25.304688 93.652344 24.730469 93.28125 24.445312 C 92.90625 24.164062 92.421875 24.023438 91.828125 24.023438 C 90.710938 24.023438 89.90625 24.433594 89.414062 25.253906 C 88.921875 26.074219 88.675781 27.292969 88.675781 28.902344 C 88.675781 30.515625 88.898438 31.695312 89.347656 32.441406 C 89.792969 33.1875 90.34375 33.902344 91 34.582031 C 91.65625 35.261719 92.019531 35.644531 92.09375 35.734375 L 94.777344 38.578125 C 97.996094 41.953125 99.605469 45.730469 99.605469 49.910156 C 99.605469 53.316406 99.078125 55.917969 98.027344 57.714844 C 96.980469 59.515625 94.980469 60.414062 92.027344 60.414062 C 88.46875 60.414062 86.210938 58.847656 85.257812 55.710938 C 84.707031 53.949219 84.429688 51.644531 84.429688 48.792969 L 84.429688 44.738281 L 88.921875 44.738281 L 88.921875 48.746094 C 88.921875 51.628906 89.128906 53.632812 89.546875 54.761719 C 89.964844 55.886719 90.738281 56.453125 91.871094 56.453125 C 93.003906 56.453125 93.785156 56.1875 94.21875 55.65625 C 94.652344 55.125 94.902344 54.316406 94.96875 53.226562 C 95.035156 52.136719 95.066406 50.910156 95.066406 49.554688 C 95.066406 46.820312 93.867188 44.253906 91.46875 41.847656 L 88.898438 39.273438 C 86.605469 36.914062 85.183594 34.742188 84.632812 32.757812 Z M 108.105469 20.550781 L 113.671875 20.550781 L 120.175781 59.96875 L 115.816406 59.96875 L 114.699219 52.441406 L 107.570312 52.441406 L 106.542969 59.96875 L 102.140625 59.96875 Z M 108.085938 48.679688 L 114.117188 48.679688 L 111.011719 27.851562 L 110.945312 27.851562 Z M 123.269531 31.703125 C 123.269531 25.910156 124.640625 22.3125 127.382812 20.910156 C 128.453125 20.371094 129.628906 20.09375 130.910156 20.078125 C 133.3125 20.078125 135.046875 20.589844 136.121094 21.613281 C 137.191406 22.636719 137.886719 23.988281 138.199219 25.667969 C 138.511719 27.347656 138.667969 29.390625 138.667969 31.792969 L 138.667969 34.839844 L 134.199219 34.839844 L 134.199219 29.710938 C 134.199219 27.695312 133.992188 26.253906 133.582031 25.386719 C 133.171875 24.523438 132.367188 24.089844 131.167969 24.089844 C 129.96875 24.089844 129.125 24.632812 128.632812 25.722656 C 128.140625 26.8125 127.894531 28.738281 127.894531 31.5 L 127.894531 48.074219 C 127.894531 51.226562 128.109375 53.417969 128.542969 54.648438 C 128.976562 55.878906 129.828125 56.496094 131.101562 56.496094 C 132.375 56.496094 133.246094 55.863281 133.71875 54.59375 C 134.1875 53.324219 134.421875 51.121094 134.421875 47.984375 L 134.421875 42.855469 L 131.226562 42.855469 L 131.226562 39.273438 L 138.667969 39.273438 L 138.667969 59.96875 L 136.230469 59.96875 L 135.605469 56.921875 C 134.726562 59.207031 133.046875 60.347656 130.566406 60.347656 C 128.085938 60.347656 126.25 59.382812 125.058594 57.449219 C 123.863281 55.515625 123.269531 52.441406 123.269531 48.230469 Z M 144.085938 20.550781 L 155.839844 20.550781 L 155.839844 24.402344 L 148.710938 24.402344 L 148.710938 37.886719 L 155.460938 37.886719 L 155.460938 41.738281 L 148.710938 41.738281 L 148.710938 56.117188 L 155.929688 56.117188 L 155.929688 59.96875 L 144.085938 59.96875 Z M 144.085938 20.550781 "/>
</g>
</g>
</svg>
