<?xml version="1.0" encoding="UTF-8"?>
<svg xmlns="http://www.w3.org/2000/svg" xmlns:xlink="http://www.w3.org/1999/xlink" width="165pt" height="82.499998pt" viewBox="0 0 165 82.499998" version="1.2">
<defs>
<clipPath id="clip1">
  <path d="M 0.496094 0 L 164.503906 0 L 164.503906 82.003906 L 0.496094 82.003906 Z M 0.496094 0 "/>
</clipPath>
<clipPath id="clip2">
  <path d="M 145 38 L 156 38 L 156 54.988281 L 145 54.988281 Z M 145 38 "/>
</clipPath>
<clipPath id="clip3">
  <path d="M 9 26.777344 L 45 26.777344 L 45 50 L 9 50 Z M 9 26.777344 "/>
</clipPath>
</defs>
<g id="surface1">
<g clip-path="url(#clip1)" clip-rule="nonzero">
<path style=" stroke:none;fill-rule:nonzero;fill:rgb(100%,100%,100%);fill-opacity:1;" d="M 0.496094 0 L 164.503906 0 L 164.503906 89.457031 L 0.496094 89.457031 Z M 0.496094 0 "/>
<path style=" stroke:none;fill-rule:nonzero;fill:rgb(100%,100%,100%);fill-opacity:1;" d="M 0.496094 0 L 164.503906 0 L 164.503906 82.003906 L 0.496094 82.003906 Z M 0.496094 0 "/>
<path style=" stroke:none;fill-rule:nonzero;fill:rgb(100%,100%,100%);fill-opacity:1;" d="M 0.496094 0 L 164.503906 0 L 164.503906 82.003906 L 0.496094 82.003906 Z M 0.496094 0 "/>
</g>
<path style=" stroke:none;fill-rule:nonzero;fill:rgb(20.388794%,28.239441%,77.249146%);fill-opacity:1;" d="M 56.199219 35.644531 C 56.980469 35.644531 57.722656 35.816406 58.421875 36.160156 C 59.125 36.503906 59.710938 36.980469 60.1875 37.597656 C 60.273438 37.710938 60.371094 37.722656 60.480469 37.628906 L 62.160156 36.300781 C 62.269531 36.214844 62.277344 36.117188 62.191406 36.011719 C 61.46875 35.078125 60.574219 34.355469 59.507812 33.835938 C 58.445312 33.316406 57.320312 33.058594 56.132812 33.058594 C 51.75 33.058594 48.195312 36.804688 48.195312 41.410156 C 48.195312 46.015625 51.761719 49.761719 56.132812 49.761719 C 57.320312 49.765625 58.445312 49.507812 59.507812 48.992188 C 60.574219 48.472656 61.46875 47.746094 62.1875 46.8125 C 62.28125 46.703125 62.269531 46.605469 62.152344 46.519531 L 60.476562 45.207031 C 60.367188 45.121094 60.269531 45.132812 60.183594 45.242188 C 59.707031 45.851562 59.117188 46.328125 58.417969 46.667969 C 57.71875 47.007812 56.980469 47.183594 56.199219 47.183594 C 53.207031 47.183594 50.863281 44.648438 50.863281 41.414062 C 50.863281 38.183594 53.207031 35.644531 56.199219 35.644531 Z M 56.199219 35.644531 "/>
<path style=" stroke:none;fill-rule:nonzero;fill:rgb(20.388794%,28.239441%,77.249146%);fill-opacity:1;" d="M 64.355469 32.582031 L 66.460938 32.582031 C 66.597656 32.582031 66.667969 32.652344 66.667969 32.789062 L 66.667969 49.34375 C 66.667969 49.480469 66.601562 49.546875 66.460938 49.546875 L 64.359375 49.546875 C 64.21875 49.546875 64.148438 49.476562 64.148438 49.339844 L 64.148438 32.789062 C 64.148438 32.652344 64.214844 32.582031 64.355469 32.582031 Z M 64.355469 32.582031 "/>
<path style=" stroke:none;fill-rule:nonzero;fill:rgb(20.388794%,28.239441%,77.249146%);fill-opacity:1;" d="M 73.839844 38.308594 C 71.050781 38.308594 68.230469 40.265625 68.230469 44.011719 C 68.230469 47.304688 70.640625 49.789062 73.839844 49.789062 C 77.039062 49.789062 79.476562 47.304688 79.476562 44.011719 C 79.476562 40.722656 77.054688 38.308594 73.839844 38.308594 Z M 76.9375 44.011719 C 76.9375 45.914062 75.605469 47.347656 73.839844 47.347656 C 72.078125 47.347656 70.773438 45.914062 70.773438 44.011719 C 70.773438 42.113281 72.089844 40.75 73.839844 40.75 C 75.589844 40.75 76.9375 42.152344 76.9375 44.011719 Z M 76.9375 44.011719 "/>
<path style=" stroke:none;fill-rule:nonzero;fill:rgb(20.388794%,28.239441%,77.249146%);fill-opacity:1;" d="M 90.820312 38.546875 L 88.714844 38.546875 C 88.574219 38.546875 88.503906 38.613281 88.503906 38.75 L 88.503906 44.289062 C 88.503906 46.453125 87 47.21875 85.710938 47.21875 C 84.570312 47.21875 83.421875 46.367188 83.421875 44.457031 L 83.421875 38.75 C 83.421875 38.613281 83.351562 38.546875 83.210938 38.546875 L 81.105469 38.546875 C 80.96875 38.546875 80.902344 38.613281 80.902344 38.75 L 80.902344 44.726562 C 80.902344 48.007812 82.398438 49.8125 85.117188 49.8125 C 86.105469 49.8125 87.703125 49.25 88.300781 48.007812 L 88.503906 48.046875 L 88.503906 49.34375 C 88.503906 49.480469 88.574219 49.550781 88.714844 49.550781 L 90.820312 49.550781 C 90.957031 49.550781 91.027344 49.480469 91.027344 49.34375 L 91.027344 38.75 C 91.027344 38.613281 90.957031 38.546875 90.820312 38.546875 Z M 90.820312 38.546875 "/>
<path style=" stroke:none;fill-rule:nonzero;fill:rgb(20.388794%,28.239441%,77.249146%);fill-opacity:1;" d="M 103.742188 32.582031 L 101.636719 32.582031 C 101.496094 32.582031 101.429688 32.652344 101.429688 32.789062 L 101.429688 40.1875 L 101.300781 39.984375 C 100.660156 38.960938 99.28125 38.300781 97.789062 38.300781 C 95.214844 38.300781 92.609375 40.265625 92.609375 44.027344 C 92.609375 47.308594 94.84375 49.78125 97.808594 49.78125 C 98.9375 49.78125 100.527344 49.332031 101.300781 48.070312 L 101.429688 47.863281 L 101.429688 49.34375 C 101.429688 49.480469 101.496094 49.550781 101.636719 49.550781 L 103.742188 49.550781 C 103.882812 49.550781 103.949219 49.480469 103.949219 49.34375 L 103.949219 32.789062 C 103.949219 32.652344 103.882812 32.582031 103.742188 32.582031 Z M 101.390625 44.011719 C 101.40625 44.441406 101.335938 44.855469 101.183594 45.257812 C 101.03125 45.65625 100.804688 46.011719 100.507812 46.324219 C 100.210938 46.632812 99.867188 46.878906 99.472656 47.050781 C 99.078125 47.222656 98.664062 47.316406 98.230469 47.324219 C 96.507812 47.324219 95.160156 45.867188 95.160156 44.011719 C 95.160156 42.160156 96.507812 40.75 98.230469 40.75 C 98.660156 40.757812 99.066406 40.851562 99.457031 41.019531 C 99.847656 41.191406 100.191406 41.429688 100.484375 41.738281 C 100.78125 42.042969 101.007812 42.394531 101.160156 42.785156 C 101.316406 43.179688 101.390625 43.589844 101.382812 44.011719 Z M 101.390625 44.011719 "/>
<path style=" stroke:none;fill-rule:nonzero;fill:rgb(20.388794%,28.239441%,77.249146%);fill-opacity:1;" d="M 106.898438 38.546875 L 109 38.546875 C 109.140625 38.546875 109.207031 38.613281 109.207031 38.75 L 109.207031 49.34375 C 109.207031 49.480469 109.140625 49.546875 109 49.546875 L 106.898438 49.546875 C 106.757812 49.546875 106.6875 49.476562 106.6875 49.339844 L 106.6875 38.75 C 106.691406 38.613281 106.761719 38.546875 106.898438 38.546875 Z M 106.898438 38.546875 "/>
<path style=" stroke:none;fill-rule:nonzero;fill:rgb(20.388794%,28.239441%,77.249146%);fill-opacity:1;" d="M 107.957031 32.917969 C 107.738281 32.914062 107.527344 32.949219 107.320312 33.03125 C 107.117188 33.109375 106.933594 33.226562 106.777344 33.378906 C 106.621094 33.535156 106.5 33.710938 106.414062 33.910156 C 106.328125 34.113281 106.285156 34.324219 106.285156 34.542969 C 106.289062 34.757812 106.332031 34.96875 106.417969 35.167969 C 106.503906 35.367188 106.625 35.546875 106.78125 35.699219 C 106.941406 35.851562 107.121094 35.96875 107.324219 36.050781 C 107.527344 36.128906 107.738281 36.171875 107.957031 36.167969 C 108.175781 36.171875 108.386719 36.132812 108.589844 36.050781 C 108.792969 35.96875 108.972656 35.851562 109.128906 35.699219 C 109.28125 35.546875 109.402344 35.367188 109.484375 35.167969 C 109.566406 34.96875 109.609375 34.757812 109.605469 34.542969 C 109.609375 34.324219 109.570312 34.113281 109.488281 33.914062 C 109.40625 33.710938 109.289062 33.535156 109.132812 33.382812 C 108.976562 33.226562 108.796875 33.109375 108.59375 33.03125 C 108.390625 32.949219 108.175781 32.914062 107.957031 32.917969 Z M 107.957031 32.917969 "/>
<path style=" stroke:none;fill-rule:nonzero;fill:rgb(20.388794%,28.239441%,77.249146%);fill-opacity:1;" d="M 117.875 38.308594 C 116.953125 38.308594 115.3125 38.800781 114.6875 40.113281 L 114.484375 40.070312 L 114.484375 38.75 C 114.484375 38.613281 114.414062 38.546875 114.273438 38.546875 L 112.171875 38.546875 C 112.035156 38.546875 111.964844 38.613281 111.964844 38.75 L 111.964844 49.34375 C 111.960938 49.480469 112.03125 49.550781 112.171875 49.550781 L 114.273438 49.550781 C 114.414062 49.550781 114.484375 49.480469 114.484375 49.34375 L 114.484375 43.804688 C 114.484375 41.65625 115.988281 40.886719 117.277344 40.886719 C 118.417969 40.886719 119.570312 41.738281 119.570312 43.628906 L 119.570312 49.34375 C 119.570312 49.480469 119.636719 49.550781 119.777344 49.550781 L 121.886719 49.550781 C 122.027344 49.550781 122.097656 49.480469 122.097656 49.34375 L 122.097656 43.371094 C 122.089844 40.105469 120.59375 38.308594 117.875 38.308594 Z M 117.875 38.308594 "/>
<path style=" stroke:none;fill-rule:nonzero;fill:rgb(20.388794%,28.239441%,77.249146%);fill-opacity:1;" d="M 134.667969 38.546875 L 132.5625 38.546875 C 132.425781 38.546875 132.355469 38.613281 132.355469 38.75 L 132.355469 40.207031 L 132.230469 40.003906 C 131.585938 38.980469 130.207031 38.320312 128.703125 38.320312 C 126.128906 38.320312 123.523438 40.289062 123.523438 44.046875 C 123.523438 47.328125 125.757812 49.800781 128.726562 49.800781 C 129.851562 49.800781 131.441406 49.351562 132.21875 48.09375 L 132.34375 47.882812 L 132.34375 49.34375 C 132.34375 49.480469 132.414062 49.550781 132.550781 49.550781 L 134.65625 49.550781 C 134.796875 49.550781 134.863281 49.480469 134.863281 49.34375 L 134.863281 38.75 C 134.863281 38.621094 134.796875 38.554688 134.667969 38.546875 Z M 132.316406 44.011719 C 132.332031 44.441406 132.261719 44.855469 132.109375 45.257812 C 131.953125 45.660156 131.730469 46.015625 131.429688 46.328125 C 131.132812 46.636719 130.785156 46.878906 130.390625 47.054688 C 129.996094 47.226562 129.582031 47.316406 129.148438 47.324219 C 127.425781 47.324219 126.078125 45.867188 126.078125 44.011719 C 126.078125 42.160156 127.425781 40.75 129.148438 40.75 C 129.578125 40.757812 129.984375 40.847656 130.378906 41.019531 C 130.769531 41.1875 131.113281 41.425781 131.410156 41.734375 C 131.707031 42.039062 131.933594 42.390625 132.089844 42.785156 C 132.246094 43.179688 132.320312 43.589844 132.3125 44.011719 Z M 132.316406 44.011719 "/>
<path style=" stroke:none;fill-rule:nonzero;fill:rgb(20.388794%,28.239441%,77.249146%);fill-opacity:1;" d="M 144.273438 38.585938 C 143.789062 38.390625 143.285156 38.292969 142.761719 38.292969 C 141.363281 38.292969 140.34375 39.125 139.820312 40.699219 L 139.632812 40.671875 L 139.632812 38.75 C 139.632812 38.613281 139.5625 38.546875 139.425781 38.546875 L 137.320312 38.546875 C 137.179688 38.546875 137.113281 38.613281 137.113281 38.75 L 137.113281 49.34375 C 137.113281 49.480469 137.179688 49.550781 137.320312 49.550781 L 139.449219 49.550781 C 139.585938 49.550781 139.65625 49.480469 139.652344 49.34375 L 139.652344 45.726562 C 139.652344 41.414062 141.390625 40.773438 142.429688 40.773438 C 142.871094 40.773438 143.296875 40.859375 143.703125 41.035156 C 143.761719 41.0625 143.820312 41.0625 143.882812 41.035156 C 143.9375 41.003906 143.972656 40.957031 143.988281 40.894531 L 144.402344 38.820312 C 144.429688 38.703125 144.382812 38.625 144.273438 38.585938 Z M 144.273438 38.585938 "/>
<g clip-path="url(#clip2)" clip-rule="nonzero">
<path style=" stroke:none;fill-rule:nonzero;fill:rgb(20.388794%,28.239441%,77.249146%);fill-opacity:1;" d="M 155.949219 38.636719 C 155.910156 38.574219 155.851562 38.546875 155.777344 38.546875 L 153.511719 38.546875 C 153.417969 38.546875 153.351562 38.59375 153.316406 38.679688 L 150.574219 45.726562 L 147.804688 38.679688 C 147.769531 38.59375 147.707031 38.546875 147.609375 38.546875 L 145.300781 38.546875 C 145.226562 38.546875 145.171875 38.578125 145.128906 38.636719 C 145.089844 38.699219 145.082031 38.761719 145.109375 38.828125 L 149.226562 48.851562 L 146.953125 54.710938 C 146.921875 54.777344 146.925781 54.84375 146.96875 54.910156 C 147.011719 54.972656 147.070312 55.003906 147.148438 55 L 149.351562 55 C 149.445312 55.003906 149.507812 54.957031 149.542969 54.871094 L 155.96875 38.835938 C 156 38.765625 155.992188 38.699219 155.949219 38.636719 Z M 155.949219 38.636719 "/>
</g>
<g clip-path="url(#clip3)" clip-rule="nonzero">
<path style=" stroke:none;fill-rule:nonzero;fill:rgb(20.388794%,28.239441%,77.249146%);fill-opacity:1;" d="M 37.792969 34.972656 C 37.605469 34.386719 37.371094 33.816406 37.09375 33.265625 C 36.8125 32.714844 36.492188 32.1875 36.128906 31.6875 C 35.765625 31.183594 35.367188 30.714844 34.929688 30.277344 C 34.492188 29.835938 34.023438 29.433594 33.523438 29.070312 C 33.023438 28.703125 32.496094 28.378906 31.945312 28.097656 C 31.390625 27.8125 30.820312 27.574219 30.230469 27.378906 C 29.640625 27.183594 29.039062 27.035156 28.425781 26.933594 C 27.8125 26.835938 27.195312 26.78125 26.570312 26.777344 C 25.511719 26.773438 24.472656 26.90625 23.453125 27.179688 C 22.433594 27.457031 21.464844 27.863281 20.558594 28.398438 C 19.648438 28.933594 18.828125 29.582031 18.09375 30.339844 C 17.363281 31.097656 16.746094 31.9375 16.246094 32.863281 C 15.324219 33.027344 14.453125 33.328125 13.628906 33.765625 C 12.808594 34.207031 12.074219 34.761719 11.429688 35.433594 C 10.785156 36.105469 10.261719 36.863281 9.859375 37.699219 C 9.460938 38.535156 9.199219 39.414062 9.082031 40.335938 C 8.964844 41.253906 8.992188 42.171875 9.167969 43.082031 C 9.347656 43.992188 9.660156 44.851562 10.113281 45.664062 C 10.566406 46.472656 11.136719 47.195312 11.824219 47.824219 C 12.507812 48.457031 13.277344 48.964844 14.125 49.351562 L 14.347656 49.449219 L 14.359375 49.449219 L 14.359375 46.972656 C 13.777344 46.617188 13.265625 46.183594 12.820312 45.667969 C 12.375 45.15625 12.019531 44.585938 11.75 43.960938 C 11.484375 43.335938 11.324219 42.683594 11.261719 42.007812 C 11.203125 41.332031 11.246094 40.664062 11.398438 40.003906 C 11.546875 39.34375 11.796875 38.71875 12.144531 38.136719 C 12.492188 37.550781 12.921875 37.03125 13.429688 36.582031 C 13.941406 36.132812 14.507812 35.769531 15.132812 35.492188 C 15.757812 35.21875 16.410156 35.046875 17.09375 34.972656 L 17.710938 34.910156 L 17.980469 34.359375 C 18.363281 33.550781 18.855469 32.8125 19.449219 32.144531 C 20.046875 31.476562 20.726562 30.90625 21.484375 30.429688 C 22.246094 29.953125 23.058594 29.59375 23.925781 29.347656 C 24.789062 29.101562 25.671875 28.980469 26.570312 28.984375 C 27.105469 28.988281 27.632812 29.035156 28.15625 29.125 C 28.679688 29.21875 29.195312 29.351562 29.695312 29.527344 C 30.199219 29.699219 30.683594 29.917969 31.148438 30.171875 C 31.613281 30.425781 32.054688 30.71875 32.472656 31.046875 C 32.890625 31.375 33.277344 31.734375 33.632812 32.125 C 33.992188 32.515625 34.3125 32.933594 34.601562 33.378906 C 34.886719 33.824219 35.136719 34.289062 35.34375 34.773438 C 35.554688 35.261719 35.71875 35.761719 35.84375 36.273438 L 36.058594 37.105469 L 36.9375 37.105469 C 37.289062 37.113281 37.640625 37.15625 37.984375 37.230469 C 38.328125 37.304688 38.660156 37.410156 38.984375 37.546875 C 39.308594 37.6875 39.613281 37.855469 39.90625 38.050781 C 40.195312 38.25 40.464844 38.472656 40.710938 38.71875 C 40.957031 38.96875 41.179688 39.238281 41.371094 39.53125 C 41.566406 39.824219 41.730469 40.128906 41.863281 40.453125 C 42 40.777344 42.101562 41.109375 42.167969 41.453125 C 42.238281 41.792969 42.273438 42.140625 42.273438 42.488281 C 42.273438 44.542969 41.078125 46.226562 39.039062 47.078125 L 39.039062 49.425781 L 39.1875 49.378906 C 42.460938 48.316406 44.496094 45.675781 44.496094 42.488281 C 44.492188 42.03125 44.449219 41.578125 44.363281 41.128906 C 44.277344 40.679688 44.152344 40.242188 43.988281 39.8125 C 43.824219 39.386719 43.621094 38.976562 43.382812 38.585938 C 43.140625 38.195312 42.871094 37.828125 42.566406 37.484375 C 42.257812 37.144531 41.925781 36.832031 41.5625 36.546875 C 41.199219 36.265625 40.816406 36.015625 40.410156 35.800781 C 40 35.585938 39.578125 35.410156 39.140625 35.269531 C 38.699219 35.132812 38.25 35.03125 37.792969 34.972656 Z M 37.792969 34.972656 "/>
</g>
<path style=" stroke:none;fill-rule:nonzero;fill:rgb(20.388794%,28.239441%,77.249146%);fill-opacity:1;" d="M 22.261719 49.164062 L 22.75 49.648438 C 22.78125 49.679688 22.785156 49.714844 22.769531 49.753906 C 22.753906 49.792969 22.726562 49.8125 22.683594 49.8125 L 18.832031 49.8125 C 18.597656 49.8125 18.375 49.769531 18.15625 49.679688 C 17.941406 49.589844 17.75 49.464844 17.585938 49.300781 C 17.417969 49.136719 17.292969 48.945312 17.203125 48.734375 C 17.113281 48.519531 17.070312 48.296875 17.070312 48.0625 L 17.070312 40.644531 C 17.070312 40.582031 17.035156 40.550781 16.972656 40.550781 L 16.148438 40.550781 C 16.105469 40.550781 16.074219 40.53125 16.058594 40.492188 C 16.042969 40.453125 16.046875 40.417969 16.078125 40.386719 L 19.347656 37.144531 C 19.390625 37.097656 19.4375 37.097656 19.484375 37.144531 L 22.75 40.386719 C 22.78125 40.417969 22.785156 40.453125 22.769531 40.492188 C 22.753906 40.53125 22.726562 40.550781 22.683594 40.550781 L 21.847656 40.550781 C 21.785156 40.550781 21.75 40.582031 21.746094 40.644531 L 21.746094 47.933594 C 21.75 48.414062 21.921875 48.824219 22.261719 49.164062 Z M 22.261719 49.164062 "/>
<path style=" stroke:none;fill-rule:nonzero;fill:rgb(20.388794%,28.239441%,77.249146%);fill-opacity:1;" d="M 29.484375 49.164062 L 29.976562 49.648438 C 30.003906 49.679688 30.011719 49.714844 29.996094 49.753906 C 29.976562 49.792969 29.949219 49.8125 29.90625 49.8125 L 26.0625 49.8125 C 25.828125 49.8125 25.605469 49.769531 25.386719 49.679688 C 25.171875 49.589844 24.980469 49.464844 24.816406 49.300781 C 24.652344 49.136719 24.523438 48.945312 24.433594 48.734375 C 24.34375 48.519531 24.300781 48.296875 24.300781 48.0625 L 24.300781 42.519531 C 24.300781 42.457031 24.265625 42.421875 24.203125 42.421875 L 23.371094 42.421875 C 23.328125 42.421875 23.300781 42.402344 23.28125 42.363281 C 23.265625 42.324219 23.273438 42.289062 23.304688 42.257812 L 26.570312 39.023438 C 26.613281 38.976562 26.660156 38.976562 26.707031 39.023438 L 29.976562 42.253906 C 30.003906 42.285156 30.011719 42.316406 29.996094 42.359375 C 29.976562 42.398438 29.949219 42.417969 29.90625 42.414062 L 29.070312 42.414062 C 29.003906 42.417969 28.972656 42.449219 28.972656 42.515625 L 28.972656 47.933594 C 28.972656 48.414062 29.144531 48.824219 29.484375 49.164062 Z M 29.484375 49.164062 "/>
<path style=" stroke:none;fill-rule:nonzero;fill:rgb(20.388794%,28.239441%,77.249146%);fill-opacity:1;" d="M 36.710938 49.164062 L 37.199219 49.648438 C 37.226562 49.679688 37.234375 49.714844 37.21875 49.753906 C 37.203125 49.792969 37.171875 49.8125 37.128906 49.8125 L 33.277344 49.8125 C 33.042969 49.8125 32.816406 49.769531 32.601562 49.679688 C 32.386719 49.589844 32.195312 49.464844 32.03125 49.300781 C 31.863281 49.136719 31.738281 48.945312 31.648438 48.734375 C 31.558594 48.519531 31.511719 48.296875 31.511719 48.0625 L 31.511719 44.382812 C 31.511719 44.316406 31.480469 44.285156 31.414062 44.285156 L 30.59375 44.285156 C 30.546875 44.285156 30.519531 44.265625 30.5 44.222656 C 30.484375 44.183594 30.492188 44.148438 30.523438 44.117188 L 33.792969 40.878906 C 33.839844 40.832031 33.882812 40.832031 33.929688 40.878906 L 37.199219 44.117188 C 37.230469 44.148438 37.238281 44.183594 37.222656 44.222656 C 37.203125 44.265625 37.175781 44.285156 37.128906 44.285156 L 36.292969 44.285156 C 36.226562 44.285156 36.195312 44.316406 36.195312 44.382812 L 36.195312 47.933594 C 36.195312 48.414062 36.367188 48.824219 36.710938 49.164062 Z M 36.710938 49.164062 "/>
</g>
</svg>
