<?xml version="1.0" encoding="UTF-8"?>
<svg xmlns="http://www.w3.org/2000/svg" xmlns:xlink="http://www.w3.org/1999/xlink" width="165pt" height="82.499998pt" viewBox="0 0 165 82.499998" version="1.2">
<defs>
<clipPath id="clip1">
  <path d="M 0.496094 0 L 164.503906 0 L 164.503906 82.003906 L 0.496094 82.003906 Z M 0.496094 0 "/>
</clipPath>
<clipPath id="clip2">
  <path d="M 8.699219 14.296875 L 33 14.296875 L 33 67.972656 L 8.699219 67.972656 Z M 8.699219 14.296875 "/>
</clipPath>
</defs>
<g id="surface1">
<g clip-path="url(#clip1)" clip-rule="nonzero">
<path style=" stroke:none;fill-rule:nonzero;fill:rgb(100%,100%,100%);fill-opacity:1;" d="M 0.496094 0 L 164.503906 0 L 164.503906 89.457031 L 0.496094 89.457031 Z M 0.496094 0 "/>
<path style=" stroke:none;fill-rule:nonzero;fill:rgb(100%,100%,100%);fill-opacity:1;" d="M 0.496094 0 L 164.503906 0 L 164.503906 82.003906 L 0.496094 82.003906 Z M 0.496094 0 "/>
<path style=" stroke:none;fill-rule:nonzero;fill:rgb(100%,100%,100%);fill-opacity:1;" d="M 0.496094 0 L 164.503906 0 L 164.503906 82.003906 L 0.496094 82.003906 Z M 0.496094 0 "/>
</g>
<g clip-path="url(#clip2)" clip-rule="nonzero">
<path style=" stroke:none;fill-rule:evenodd;fill:rgb(10.978699%,77.648926%,56.858826%);fill-opacity:1;" d="M 32.6875 26.214844 C 32.6875 27.628906 32.449219 28.996094 31.964844 30.320312 C 31.480469 31.640625 30.78125 32.839844 29.871094 33.910156 L 32.398438 68.253906 L 9.796875 68.253906 L 12.25 34.511719 C 11.167969 33.40625 10.335938 32.136719 9.753906 30.699219 C 9.171875 29.265625 8.878906 27.769531 8.878906 26.21875 C 8.878906 19.632812 14.207031 14.296875 20.785156 14.296875 C 27.359375 14.296875 32.6875 19.632812 32.6875 26.214844 Z M 32.6875 26.214844 "/>
</g>
<path style=" stroke:none;fill-rule:nonzero;fill:rgb(100%,100%,100%);fill-opacity:1;" d="M 23.644531 26.035156 C 23.644531 26.417969 23.574219 26.789062 23.425781 27.144531 C 23.28125 27.496094 23.074219 27.808594 22.808594 28.082031 C 22.539062 28.355469 22.230469 28.5625 21.878906 28.710938 C 21.527344 28.855469 21.164062 28.929688 20.785156 28.929688 C 20.402344 28.929688 20.039062 28.855469 19.6875 28.710938 C 19.335938 28.5625 19.027344 28.355469 18.757812 28.082031 C 18.492188 27.808594 18.285156 27.496094 18.140625 27.144531 C 17.992188 26.789062 17.921875 26.417969 17.921875 26.035156 C 17.921875 25.652344 17.992188 25.28125 18.140625 24.925781 C 18.285156 24.570312 18.492188 24.257812 18.757812 23.988281 C 19.027344 23.714844 19.335938 23.507812 19.6875 23.359375 C 20.039062 23.210938 20.402344 23.140625 20.785156 23.140625 C 21.164062 23.140625 21.527344 23.210938 21.878906 23.359375 C 22.230469 23.507812 22.539062 23.714844 22.808594 23.988281 C 23.074219 24.257812 23.28125 24.570312 23.425781 24.925781 C 23.574219 25.28125 23.644531 25.652344 23.644531 26.035156 Z M 23.644531 26.035156 "/>
<path style=" stroke:none;fill-rule:evenodd;fill:rgb(100%,100%,100%);fill-opacity:1;" d="M 23.042969 39.292969 L 23.042969 58.804688 L 19.125 58.804688 L 19.125 43.253906 Z M 23.042969 39.292969 "/>
<path style=" stroke:none;fill-rule:evenodd;fill:rgb(35.289001%,35.289001%,35.289001%);fill-opacity:1;" d="M 66.835938 51.703125 C 65.308594 53.367188 63.808594 54.417969 63.007812 54.847656 C 62.210938 55.277344 61.359375 55.496094 60.457031 55.492188 C 59.460938 55.492188 58.59375 55.203125 57.859375 54.621094 C 57.117188 54.039062 56.609375 53.289062 56.332031 52.382812 C 56.046875 51.464844 55.90625 50.175781 55.90625 48.5 L 55.90625 40.945312 C 55.90625 40.753906 55.90625 39.925781 55.394531 39.667969 C 55.261719 39.617188 55.121094 39.585938 54.980469 39.578125 C 54.800781 39.558594 54.710938 39.457031 54.710938 39.277344 L 54.707031 38.402344 C 54.707031 38.234375 54.839844 38.097656 55.003906 38.09375 L 58.28125 38.09375 C 58.753906 38.09375 59.136719 38.480469 59.136719 38.957031 L 59.136719 43.453125 L 59.132812 43.453125 L 59.132812 49.011719 C 59.132812 50.683594 59.421875 51.78125 60 52.300781 C 60.578125 52.824219 61.273438 53.085938 62.089844 53.085938 C 62.648438 53.085938 63.28125 52.90625 63.988281 52.554688 C 64.695312 52.203125 65.867188 51.53125 66.839844 50.542969 L 66.839844 49.695312 L 66.84375 49.695312 L 66.855469 41.714844 L 66.855469 40.941406 C 66.855469 40.753906 66.855469 39.925781 66.347656 39.667969 C 66.21875 39.617188 66.082031 39.585938 65.945312 39.578125 C 65.769531 39.554688 65.679688 39.457031 65.679688 39.277344 L 65.671875 38.402344 C 65.671875 38.234375 65.804688 38.097656 65.972656 38.09375 L 69.203125 38.09375 C 69.667969 38.09375 70.046875 38.476562 70.046875 38.949219 L 70.046875 41.84375 C 70.050781 41.863281 70.050781 41.882812 70.050781 41.902344 L 70.050781 47.875 C 70.050781 49.261719 70.050781 50.53125 70.046875 51.695312 L 70.042969 51.695312 L 70.046875 52.144531 C 70.046875 52.332031 70.023438 53.242188 70.53125 53.5 C 70.664062 53.550781 70.796875 53.582031 70.9375 53.589844 C 71.089844 53.609375 71.203125 53.738281 71.207031 53.890625 L 71.210938 54.769531 C 71.210938 54.855469 71.183594 54.925781 71.125 54.988281 C 71.066406 55.046875 70.996094 55.078125 70.910156 55.078125 L 67.671875 55.078125 C 67.4375 55.078125 67.238281 54.992188 67.074219 54.828125 C 66.910156 54.660156 66.824219 54.460938 66.824219 54.222656 L 66.824219 54.21875 L 66.832031 52.59375 L 66.828125 52.59375 Z M 73.355469 35.296875 L 73.351562 35.296875 L 73.351562 33.046875 C 73.351562 32.867188 73.351562 32.066406 72.859375 31.824219 C 72.796875 31.792969 72.730469 31.769531 72.664062 31.753906 C 72.511719 31.714844 72.4375 31.617188 72.4375 31.457031 L 72.429688 30.613281 C 72.429688 30.53125 72.457031 30.457031 72.515625 30.398438 C 72.574219 30.339844 72.648438 30.308594 72.730469 30.308594 L 75.640625 30.308594 C 76.09375 30.308594 76.464844 30.679688 76.464844 31.140625 L 76.457031 35.464844 L 76.457031 41.015625 C 78.125 38.703125 79.917969 37.546875 81.847656 37.546875 C 83.617188 37.546875 85.15625 38.296875 86.472656 39.804688 C 87.789062 41.3125 88.445312 43.371094 88.445312 45.988281 C 88.445312 49.035156 87.433594 51.492188 85.402344 53.355469 C 83.660156 54.957031 81.71875 55.757812 79.578125 55.757812 C 78.574219 55.757812 77.554688 55.574219 76.523438 55.210938 C 75.574219 54.871094 74.675781 54.425781 73.824219 53.882812 C 73.511719 53.6875 73.355469 53.402344 73.355469 53.035156 L 73.355469 36.484375 C 73.355469 36.171875 73.355469 35.777344 73.351562 35.296875 Z M 76.746094 52.765625 C 77.292969 53.257812 77.859375 53.636719 78.4375 53.910156 C 79.121094 54.226562 79.820312 54.386719 80.535156 54.386719 C 81.675781 54.386719 82.734375 53.761719 83.71875 52.511719 C 84.703125 51.261719 85.195312 49.441406 85.195312 47.054688 C 85.195312 44.855469 84.703125 43.164062 83.71875 41.984375 C 82.734375 40.800781 81.617188 40.210938 80.367188 40.210938 C 79.703125 40.210938 79.039062 40.378906 78.375 40.71875 C 77.933594 40.9375 77.386719 41.347656 76.734375 41.953125 C 76.550781 42.125 76.457031 42.339844 76.457031 42.59375 L 76.457031 52.113281 C 76.457031 52.363281 76.5625 52.597656 76.746094 52.765625 Z M 110.554688 49.847656 L 110.554688 42.367188 C 112.027344 40.769531 114.152344 39.96875 115.640625 39.96875 C 116.601562 39.96875 117.289062 40.316406 117.695312 41.011719 C 118.097656 41.707031 118.300781 42.824219 118.300781 44.363281 L 118.300781 49.847656 L 118.296875 49.847656 L 118.296875 54.21875 C 118.296875 54.675781 118.664062 55.046875 119.117188 55.046875 L 121.398438 55.046875 C 121.589844 55.046875 121.828125 55.042969 122.121094 55.039062 C 122.203125 55.039062 122.273438 55.007812 122.328125 54.949219 C 122.386719 54.886719 122.417969 54.816406 122.414062 54.734375 L 122.410156 53.890625 C 122.410156 53.714844 122.324219 53.617188 122.152344 53.589844 C 122.0625 53.582031 121.972656 53.554688 121.890625 53.519531 C 121.398438 53.269531 121.398438 52.464844 121.398438 52.28125 L 121.398438 50.011719 L 121.394531 50.011719 L 121.394531 44.0625 C 121.394531 42.539062 121.257812 41.40625 120.984375 40.667969 C 120.582031 39.613281 120.042969 38.851562 119.371094 38.390625 C 118.695312 37.929688 117.890625 37.699219 116.953125 37.699219 C 115.238281 37.699219 112.792969 38.753906 110.914062 40.863281 C 110.910156 40.867188 110.902344 40.875 110.898438 40.882812 C 110.835938 40.949219 110.765625 40.96875 110.679688 40.933594 C 110.59375 40.902344 110.554688 40.839844 110.554688 40.75 L 110.554688 40.082031 L 110.554688 40.085938 L 110.554688 38.867188 C 110.554688 38.640625 110.472656 38.449219 110.316406 38.289062 C 110.15625 38.128906 109.964844 38.046875 109.742188 38.046875 L 106.878906 38.046875 C 106.796875 38.046875 106.726562 38.078125 106.667969 38.136719 C 106.609375 38.195312 106.578125 38.269531 106.578125 38.351562 L 106.585938 39.199219 C 106.585938 39.351562 106.660156 39.449219 106.808594 39.492188 C 106.871094 39.507812 106.933594 39.53125 106.992188 39.558594 C 107.480469 39.804688 107.480469 40.597656 107.480469 40.78125 L 107.480469 40.820312 C 107.476562 41.003906 107.476562 41.183594 107.480469 41.363281 L 107.480469 43.027344 L 107.484375 43.027344 C 107.472656 43.644531 107.460938 44.324219 107.460938 45.003906 L 107.460938 51.277344 C 107.460938 51.28125 107.460938 51.285156 107.460938 51.289062 L 107.460938 52.273438 C 107.460938 52.457031 107.460938 53.257812 106.96875 53.507812 C 106.851562 53.554688 106.730469 53.582031 106.605469 53.59375 C 106.429688 53.613281 106.34375 53.714844 106.339844 53.894531 L 106.335938 54.722656 C 106.335938 54.894531 106.46875 55.03125 106.632812 55.03125 L 109.734375 55.03125 C 110.1875 55.03125 110.554688 54.660156 110.554688 54.203125 L 110.554688 49.84375 Z M 153.96875 50.882812 L 153.96875 52.015625 C 153.96875 52.09375 153.972656 52.171875 153.976562 52.25 C 154.011719 52.773438 154.171875 53.105469 154.457031 53.246094 C 154.53125 53.28125 154.605469 53.308594 154.683594 53.324219 C 154.839844 53.355469 154.921875 53.457031 154.921875 53.617188 L 154.925781 54.46875 C 154.925781 54.550781 154.898438 54.625 154.839844 54.683594 C 154.78125 54.742188 154.710938 54.773438 154.628906 54.773438 L 151.691406 54.773438 C 151.464844 54.773438 151.273438 54.691406 151.113281 54.53125 C 150.953125 54.371094 150.875 54.175781 150.875 53.945312 L 150.875 52.328125 C 149.105469 53.71875 147.996094 54.519531 147.546875 54.734375 C 146.859375 55.058594 146.140625 55.21875 145.386719 55.214844 C 144.195312 55.214844 143.214844 54.796875 142.441406 53.96875 C 141.671875 53.144531 141.285156 52.054688 141.285156 50.707031 C 141.285156 49.851562 141.472656 49.113281 141.851562 48.488281 C 142.363281 47.625 143.136719 46.636719 144.527344 46.046875 C 145.921875 45.457031 147.113281 45.320312 150.875 44.457031 L 150.875 42.917969 C 150.859375 41.285156 150.601562 39.621094 147.921875 39.785156 C 146.03125 39.894531 144.304688 40.492188 142.746094 41.582031 C 142.648438 41.652344 142.542969 41.660156 142.4375 41.601562 C 142.328125 41.542969 142.277344 41.453125 142.277344 41.332031 L 142.277344 40.335938 C 142.277344 39.808594 142.378906 39.464844 142.574219 39.300781 C 143.683594 38.398438 146.417969 37.324219 149.082031 37.503906 C 152.042969 37.707031 153.105469 38.953125 153.636719 40.859375 C 153.800781 41.441406 153.976562 41.863281 153.976562 43.558594 L 153.976562 48.777344 C 153.976562 49.511719 153.972656 50.210938 153.96875 50.878906 Z M 150.875 45.769531 C 148.546875 46.25 147.207031 46.550781 146.855469 46.671875 C 145.558594 47.109375 144.53125 47.613281 144.445312 49.804688 C 144.410156 50.722656 144.714844 51.484375 145.253906 52.089844 C 145.792969 52.695312 146.414062 52.996094 147.117188 52.996094 C 147.988281 52.996094 149.109375 52.328125 150.488281 51.261719 C 150.746094 51.0625 150.875 50.796875 150.875 50.464844 Z M 138.519531 52.195312 L 138.519531 52.203125 C 138.519531 52.382812 138.519531 53.160156 138.992188 53.398438 C 139.046875 53.425781 139.109375 53.449219 139.183594 53.46875 C 139.316406 53.5 139.410156 53.621094 139.410156 53.761719 L 139.414062 54.570312 C 139.417969 54.65625 139.386719 54.726562 139.328125 54.789062 C 139.269531 54.847656 139.199219 54.878906 139.117188 54.878906 L 136.3125 54.878906 C 136.09375 54.878906 135.90625 54.800781 135.75 54.644531 C 135.59375 54.488281 135.519531 54.296875 135.519531 54.078125 L 135.519531 53.289062 L 135.507812 53.292969 C 134.695312 54.171875 133.898438 54.800781 133.121094 55.183594 C 132.34375 55.566406 131.503906 55.757812 130.601562 55.757812 C 128.777344 55.757812 127.1875 54.96875 125.824219 53.394531 C 124.464844 51.820312 123.78125 49.796875 123.78125 47.328125 C 123.78125 44.859375 124.535156 42.597656 126.042969 40.546875 C 127.550781 38.496094 129.492188 37.472656 131.863281 37.472656 C 133.332031 37.472656 134.546875 37.957031 135.507812 38.921875 L 135.507812 32.898438 C 135.507812 32.714844 135.507812 31.917969 135.03125 31.671875 C 134.980469 31.644531 134.921875 31.621094 134.867188 31.605469 C 134.722656 31.5625 134.648438 31.464844 134.648438 31.3125 L 134.644531 30.457031 C 134.644531 30.289062 134.777344 30.152344 134.945312 30.148438 L 137.71875 30.148438 C 138.160156 30.148438 138.515625 30.507812 138.515625 30.953125 L 138.515625 52.144531 Z M 133.398438 40.160156 C 132.800781 39.800781 132.210938 39.625 131.640625 39.625 C 130.570312 39.625 129.597656 40.085938 128.722656 40.992188 C 127.761719 41.992188 127.117188 43.335938 127.117188 45.84375 C 127.117188 48.378906 127.652344 50.316406 128.722656 51.664062 C 129.792969 53.011719 130.984375 53.6875 132.296875 53.6875 C 133.234375 53.6875 134.144531 53.277344 135.03125 52.457031 C 135.347656 52.164062 135.507812 51.796875 135.507812 51.363281 L 135.507812 43.882812 C 135.507812 43.117188 135.320312 42.402344 134.941406 41.738281 C 134.566406 41.074219 134.054688 40.550781 133.398438 40.160156 Z M 91.910156 53.496094 C 90.550781 51.933594 89.84375 49.4375 89.84375 46.957031 C 89.84375 44.34375 90.648438 41.949219 92.109375 40.21875 C 93.628906 38.417969 95.707031 37.464844 98.117188 37.464844 C 100.164062 37.464844 101.722656 38.171875 102.75 39.5625 C 103.710938 40.863281 104.199219 42.722656 104.199219 45.089844 C 104.199219 45.375 104.183594 45.777344 104.148438 46.289062 C 104.136719 46.449219 104.074219 46.585938 103.957031 46.695312 C 103.84375 46.804688 103.703125 46.859375 103.546875 46.859375 L 93.070312 46.859375 C 93.023438 46.859375 92.980469 46.875 92.945312 46.910156 C 92.914062 46.945312 92.898438 46.988281 92.898438 47.035156 C 92.933594 48.980469 93.542969 50.625 94.664062 51.789062 C 95.765625 52.933594 97.277344 53.539062 99.03125 53.539062 C 100.34375 53.539062 102.058594 53.195312 103.386719 52.785156 C 103.519531 52.746094 103.632812 52.773438 103.734375 52.871094 C 103.832031 52.96875 103.867188 53.082031 103.832031 53.21875 L 103.652344 53.910156 C 103.585938 54.179688 103.429688 54.371094 103.183594 54.492188 C 101.871094 55.136719 99.914062 55.757812 97.898438 55.757812 C 95.453125 55.757812 93.351562 55.152344 91.910156 53.496094 Z M 92.78125 44.605469 C 92.773438 44.65625 92.792969 44.695312 92.828125 44.730469 C 92.863281 44.765625 92.90625 44.78125 92.953125 44.78125 L 101.367188 44.78125 C 101.457031 44.78125 101.53125 44.714844 101.542969 44.632812 C 101.636719 43.742188 101.675781 42.128906 100.363281 40.753906 C 99.714844 40.078125 98.9375 39.734375 97.433594 39.734375 C 94.8125 39.734375 93.070312 42.351562 92.78125 44.605469 Z M 92.78125 44.605469 "/>
<path style=" stroke:none;fill-rule:evenodd;fill:rgb(35.289001%,35.289001%,35.289001%);fill-opacity:1;" d="M 118.308594 49.949219 L 118.308594 52.242188 C 118.308594 52.425781 118.308594 53.238281 117.820312 53.488281 C 117.800781 53.5 117.78125 53.507812 117.761719 53.511719 C 117.59375 53.574219 117.457031 53.675781 117.351562 53.824219 C 117.246094 53.972656 117.195312 54.136719 117.195312 54.320312 C 117.191406 54.515625 117.261719 54.683594 117.398438 54.824219 C 117.535156 54.964844 117.703125 55.035156 117.898438 55.035156 L 120.574219 55.035156 C 120.800781 55.035156 120.992188 54.953125 121.152344 54.792969 C 121.308594 54.632812 121.390625 54.4375 121.390625 54.210938 L 121.390625 49.78125 Z M 110.558594 49.949219 L 110.558594 52.242188 C 110.558594 52.425781 110.558594 53.238281 111.042969 53.488281 C 111.0625 53.5 111.082031 53.507812 111.101562 53.511719 C 111.441406 53.632812 111.667969 53.953125 111.671875 54.320312 C 111.671875 54.515625 111.601562 54.683594 111.464844 54.824219 C 111.328125 54.960938 111.164062 55.03125 110.96875 55.035156 L 108.292969 55.035156 C 108.066406 55.035156 107.875 54.953125 107.714844 54.792969 C 107.554688 54.632812 107.476562 54.4375 107.476562 54.210938 L 107.476562 49.78125 Z M 50.953125 39.449219 L 50.953125 52.742188 C 50.953125 53.089844 51.152344 53.410156 51.460938 53.5625 C 51.796875 53.726562 51.96875 54 51.96875 54.382812 L 51.96875 54.632812 C 51.96875 54.917969 51.742188 55.144531 51.460938 55.144531 L 47.046875 55.144531 C 46.90625 55.144531 46.789062 55.097656 46.691406 54.996094 C 46.59375 54.898438 46.542969 54.777344 46.542969 54.640625 L 46.542969 54.378906 C 46.542969 54.03125 46.738281 53.714844 47.046875 53.5625 C 47.378906 53.394531 47.546875 53.125 47.546875 52.746094 L 47.546875 39.90625 C 47.546875 39.816406 47.515625 39.738281 47.453125 39.675781 C 47.390625 39.609375 47.3125 39.578125 47.222656 39.578125 C 47.132812 39.578125 47.054688 39.546875 46.992188 39.480469 C 46.929688 39.417969 46.898438 39.339844 46.898438 39.25 L 46.898438 38.828125 C 46.898438 38.621094 46.96875 38.441406 47.113281 38.296875 C 47.261719 38.148438 47.433594 38.074219 47.640625 38.074219 L 49.59375 38.074219 C 49.773438 38.074219 49.949219 38.109375 50.113281 38.179688 C 50.28125 38.25 50.425781 38.347656 50.554688 38.476562 C 50.683594 38.605469 50.78125 38.753906 50.851562 38.921875 C 50.917969 39.089844 50.953125 39.265625 50.953125 39.449219 Z M 50.953125 39.449219 "/>
<path style=" stroke:none;fill-rule:nonzero;fill:rgb(35.289001%,35.289001%,35.289001%);fill-opacity:1;" d="M 51.367188 32.589844 C 51.367188 32.871094 51.3125 33.144531 51.207031 33.40625 C 51.097656 33.667969 50.945312 33.898438 50.746094 34.097656 C 50.550781 34.296875 50.320312 34.453125 50.0625 34.5625 C 49.804688 34.667969 49.535156 34.722656 49.257812 34.722656 C 48.976562 34.722656 48.707031 34.667969 48.449219 34.5625 C 48.191406 34.453125 47.960938 34.296875 47.765625 34.097656 C 47.566406 33.898438 47.414062 33.667969 47.304688 33.40625 C 47.199219 33.144531 47.144531 32.871094 47.144531 32.589844 C 47.144531 32.304688 47.199219 32.035156 47.304688 31.773438 C 47.414062 31.511719 47.566406 31.28125 47.765625 31.082031 C 47.960938 30.878906 48.191406 30.726562 48.449219 30.617188 C 48.707031 30.507812 48.976562 30.457031 49.257812 30.457031 C 49.535156 30.457031 49.804688 30.507812 50.0625 30.617188 C 50.320312 30.726562 50.550781 30.878906 50.746094 31.082031 C 50.945312 31.28125 51.097656 31.511719 51.207031 31.773438 C 51.3125 32.035156 51.367188 32.304688 51.367188 32.589844 Z M 51.367188 32.589844 "/>
</g>
</svg>
