<?xml version="1.0" encoding="UTF-8"?>
<svg xmlns="http://www.w3.org/2000/svg" xmlns:xlink="http://www.w3.org/1999/xlink" width="165pt" height="82.499998pt" viewBox="0 0 165 82.499998" version="1.2">
<defs>
<clipPath id="clip1">
  <path d="M 0.496094 0 L 164.503906 0 L 164.503906 82.003906 L 0.496094 82.003906 Z M 0.496094 0 "/>
</clipPath>
<clipPath id="clip2">
  <path d="M 8.699219 17.628906 L 35 17.628906 L 35 41 L 8.699219 41 Z M 8.699219 17.628906 "/>
</clipPath>
<clipPath id="clip3">
  <path d="M 8.699219 33 L 34 33 L 34 64.597656 L 8.699219 64.597656 Z M 8.699219 33 "/>
</clipPath>
<clipPath id="clip4">
  <path d="M 56 26 L 156.300781 26 L 156.300781 50 L 56 50 Z M 56 26 "/>
</clipPath>
<clipPath id="clip5">
  <path d="M 51 21 L 156.300781 21 L 156.300781 55 L 51 55 Z M 51 21 "/>
</clipPath>
</defs>
<g id="surface1">
<g clip-path="url(#clip1)" clip-rule="nonzero">
<path style=" stroke:none;fill-rule:nonzero;fill:rgb(100%,100%,100%);fill-opacity:1;" d="M 0.496094 0 L 164.503906 0 L 164.503906 89.457031 L 0.496094 89.457031 Z M 0.496094 0 "/>
<path style=" stroke:none;fill-rule:nonzero;fill:rgb(100%,100%,100%);fill-opacity:1;" d="M 0.496094 0 L 164.503906 0 L 164.503906 82.003906 L 0.496094 82.003906 Z M 0.496094 0 "/>
<path style=" stroke:none;fill-rule:nonzero;fill:rgb(100%,100%,100%);fill-opacity:1;" d="M 0.496094 0 L 164.503906 0 L 164.503906 82.003906 L 0.496094 82.003906 Z M 0.496094 0 "/>
</g>
<g clip-path="url(#clip2)" clip-rule="nonzero">
<path style=" stroke:none;fill-rule:nonzero;fill:rgb(47.839355%,84.309387%,85.488892%);fill-opacity:1;" d="M 34.148438 25.183594 L 21.652344 17.660156 L 8.742188 25.429688 L 8.742188 40.460938 Z M 34.148438 25.183594 "/>
</g>
<path style=" stroke:none;fill-rule:nonzero;fill:rgb(90.19928%,22.349548%,27.449036%);fill-opacity:1;" d="M 34.972656 25.691406 L 22.0625 33.445312 L 34.558594 40.96875 L 34.558594 56.503906 L 47.46875 48.734375 L 47.46875 33.199219 Z M 34.972656 25.691406 "/>
<g clip-path="url(#clip3)" clip-rule="nonzero">
<path style=" stroke:none;fill-rule:nonzero;fill:rgb(27.059937%,48.239136%,61.569214%);fill-opacity:1;" d="M 33.71875 56.996094 L 33.71875 41.472656 L 21.652344 48.734375 L 21.652344 33.703125 L 8.742188 41.472656 L 8.742188 56.503906 L 21.652344 64.273438 Z M 33.71875 56.996094 "/>
</g>
<g clip-path="url(#clip4)" clip-rule="nonzero">
<path style=" stroke:none;fill-rule:nonzero;fill:rgb(11.369324%,20.779419%,34.118652%);fill-opacity:1;" d="M 59.984375 33.664062 L 59.984375 44.019531 C 59.984375 45.179688 60.226562 45.949219 60.726562 46.367188 C 61.226562 46.785156 61.800781 47.003906 62.464844 47.003906 C 64.144531 47.003906 65.296875 46.382812 65.902344 45.164062 L 65.902344 33.679688 L 69.414062 33.679688 L 69.414062 49.660156 L 66.128906 49.660156 L 66.128906 49.644531 L 66.035156 48.085938 C 65.007812 49.320312 63.554688 49.9375 61.648438 49.9375 C 60.121094 49.9375 58.894531 49.476562 57.925781 48.5625 C 56.957031 47.652344 56.488281 46.136719 56.472656 44.050781 L 56.472656 33.664062 Z M 113.691406 33.371094 C 115.960938 33.371094 117.730469 34.128906 119 35.644531 C 120.273438 37.15625 120.9375 39.042969 120.96875 41.316406 L 120.96875 41.808594 C 120.96875 44.128906 120.332031 46.058594 119.046875 47.605469 C 117.777344 49.148438 115.988281 49.921875 113.703125 49.921875 C 111.40625 49.921875 109.621094 49.148438 108.347656 47.605469 C 107.0625 46.058594 106.425781 44.125 106.425781 41.808594 L 106.425781 41.5 C 106.425781 39.183594 107.0625 37.25 108.347656 35.703125 C 109.636719 34.144531 111.40625 33.371094 113.691406 33.371094 Z M 81.019531 33.355469 C 82.515625 33.355469 83.726562 33.804688 84.636719 34.683594 C 85.542969 35.566406 85.996094 37.082031 86.011719 39.214844 L 86.011719 49.628906 L 82.5 49.628906 L 82.5 39.257812 C 82.5 38.164062 82.273438 37.390625 81.804688 36.941406 C 81.304688 36.523438 80.625 36.292969 79.71875 36.292969 C 78.324219 36.292969 77.265625 36.941406 76.570312 38.238281 L 76.570312 49.644531 L 73.058594 49.644531 L 73.058594 33.664062 L 76.375 33.664062 L 76.496094 35.488281 C 77.644531 34.066406 79.144531 33.355469 81.019531 33.355469 Z M 93.351562 33.664062 L 93.351562 49.644531 L 89.839844 49.644531 L 89.839844 33.664062 Z M 103.976562 26.664062 C 104.625 26.664062 105.277344 26.757812 105.957031 26.925781 L 105.867188 29.738281 C 105.417969 29.65625 104.960938 29.613281 104.503906 29.613281 C 102.855469 29.613281 102.023438 30.449219 102.007812 32.105469 L 102.007812 33.679688 L 105.171875 33.679688 L 105.171875 36.308594 L 102.007812 36.308594 L 102.007812 49.644531 L 98.484375 49.644531 L 98.484375 36.308594 L 96.089844 36.308594 L 96.089844 33.664062 L 98.480469 33.664062 L 98.480469 32.148438 C 98.480469 30.371094 98.964844 29.011719 99.949219 28.070312 C 100.933594 27.128906 102.265625 26.664062 103.976562 26.664062 Z M 130.636719 33.371094 C 131.105469 33.371094 131.53125 33.433594 131.878906 33.558594 L 131.847656 36.941406 C 131.378906 36.867188 130.902344 36.832031 130.425781 36.832031 C 128.792969 36.832031 127.703125 37.46875 127.15625 38.71875 L 127.15625 49.644531 L 123.664062 49.644531 L 123.664062 33.664062 L 127.023438 33.664062 L 127.113281 35.472656 C 127.945312 34.082031 129.109375 33.371094 130.636719 33.371094 Z M 151.144531 33.371094 C 152.730469 33.371094 153.988281 33.820312 154.894531 34.730469 C 155.820312 35.644531 156.273438 37.125 156.289062 39.214844 L 156.289062 49.644531 L 152.777344 49.644531 L 152.777344 39.273438 C 152.777344 38.101562 152.519531 37.296875 152.019531 36.894531 C 151.519531 36.492188 150.824219 36.292969 149.960938 36.292969 C 149.160156 36.292969 148.511719 36.507812 148.011719 36.957031 C 147.484375 37.425781 147.136719 38 146.964844 38.6875 L 146.964844 49.644531 L 143.457031 49.644531 L 143.457031 39.304688 C 143.457031 38.175781 143.199219 37.40625 142.699219 36.957031 C 142.183594 36.523438 141.503906 36.292969 140.625 36.292969 C 139.203125 36.292969 138.203125 36.878906 137.613281 38.070312 L 137.613281 49.644531 L 134.117188 49.644531 L 134.117188 33.664062 L 137.417969 33.664062 L 137.523438 35.332031 C 138.628906 34.019531 140.140625 33.371094 142.046875 33.371094 C 144.121094 33.371094 145.542969 34.191406 146.332031 35.8125 C 147.480469 34.191406 149.085938 33.371094 151.144531 33.371094 Z M 113.691406 36.261719 C 112.386719 36.261719 111.433594 36.785156 110.828125 37.835938 C 110.222656 38.886719 109.921875 40.109375 109.921875 41.515625 L 109.921875 41.824219 C 109.921875 43.261719 110.222656 44.5 110.828125 45.519531 C 111.433594 46.554688 112.386719 47.0625 113.71875 47.0625 C 115.007812 47.0625 115.960938 46.554688 116.566406 45.519531 C 117.171875 44.484375 117.472656 43.261719 117.472656 41.824219 L 117.472656 41.515625 C 117.472656 40.109375 117.167969 38.871094 116.566406 37.835938 C 115.960938 36.785156 115.007812 36.261719 113.691406 36.261719 Z M 91.609375 27.605469 C 92.230469 27.605469 92.730469 27.792969 93.078125 28.148438 C 93.425781 28.503906 93.609375 28.96875 93.609375 29.507812 C 93.609375 30.0625 93.425781 30.511719 93.078125 30.867188 C 92.730469 31.222656 92.230469 31.410156 91.613281 31.410156 C 90.992188 31.410156 90.492188 31.222656 90.144531 30.867188 C 89.796875 30.511719 89.613281 30.046875 89.613281 29.507812 C 89.613281 28.949219 89.796875 28.503906 90.144531 28.148438 C 90.492188 27.792969 90.992188 27.605469 91.609375 27.605469 Z M 91.609375 27.605469 "/>
</g>
<g clip-path="url(#clip5)" clip-rule="nonzero">
<path style="fill:none;stroke-width:1;stroke-linecap:butt;stroke-linejoin:miter;stroke:rgb(11.369324%,20.779419%,34.118652%);stroke-opacity:1;stroke-miterlimit:4;" d="M 62.537461 19.362598 L 62.537461 31.868278 C 62.537461 33.26933 62.832859 34.198647 63.442715 34.703402 C 64.05257 35.208158 64.752951 35.47233 65.562915 35.47233 C 67.611648 35.47233 69.017174 34.722272 69.75567 33.25046 L 69.75567 19.381467 L 74.038951 19.381467 L 74.038951 38.680124 L 70.032011 38.680124 L 70.032011 38.661254 L 69.917663 36.779034 C 68.664601 38.269715 66.892209 39.015055 64.567135 39.015055 C 62.704218 39.015055 61.208166 38.458409 60.026572 37.35455 C 58.844977 36.255409 58.273237 34.425079 58.25418 31.906017 L 58.25418 19.362598 Z M 128.044502 19.008797 C 130.812674 19.008797 132.97099 19.923962 134.519451 21.754292 C 136.072676 23.579904 136.88264 25.858381 136.920756 28.603876 L 136.920756 29.198261 C 136.920756 32.000364 136.144144 34.330732 134.576625 36.198801 C 133.028164 38.062152 130.846025 38.996186 128.058796 38.996186 C 125.257273 38.996186 123.079898 38.062152 121.526673 36.198801 C 119.959154 34.330732 119.182542 31.995647 119.182542 29.198261 L 119.182542 28.825591 C 119.182542 26.028206 119.959154 23.69312 121.526673 21.825052 C 123.098956 19.942831 125.257273 19.008797 128.044502 19.008797 Z M 88.194266 18.989928 C 90.019068 18.989928 91.496061 19.532422 92.606188 20.593825 C 93.711551 21.659945 94.264233 23.490274 94.283291 26.065945 L 94.283291 38.642385 L 90.00001 38.642385 L 90.00001 26.117835 C 90.00001 24.796979 89.723669 23.862945 89.15193 23.32045 C 88.542074 22.815694 87.713052 22.537371 86.607689 22.537371 C 84.906765 22.537371 83.615586 23.32045 82.767506 24.886608 L 82.767506 38.661254 L 78.484225 38.661254 L 78.484225 19.362598 L 82.529282 19.362598 L 82.676981 21.565598 C 84.077742 19.848484 85.907308 18.989928 88.194266 18.989928 Z M 103.235777 19.362598 L 103.235777 38.661254 L 98.952496 38.661254 L 98.952496 19.362598 Z M 116.195203 10.909117 C 116.986109 10.909117 117.78178 11.022333 118.610802 11.225179 L 118.501219 14.621667 C 117.953302 14.522602 117.395856 14.470712 116.83841 14.470712 C 114.827793 14.470712 113.812956 15.480223 113.793898 17.480377 L 113.793898 19.381467 L 117.653139 19.381467 L 117.653139 22.55624 L 113.793898 22.55624 L 113.793898 38.661254 L 109.496323 38.661254 L 109.496323 22.55624 L 106.575688 22.55624 L 106.575688 19.362598 L 109.491559 19.362598 L 109.491559 17.532268 C 109.491559 15.385876 110.082356 13.744241 111.283009 12.607361 C 112.483662 11.470481 114.108354 10.909117 116.195203 10.909117 Z M 148.712882 19.008797 C 149.284621 19.008797 149.803951 19.084275 150.227991 19.23523 L 150.189875 23.32045 C 149.618136 23.23082 149.036867 23.188364 148.455599 23.188364 C 146.46404 23.188364 145.134746 23.957292 144.467717 25.466842 L 144.467717 38.661254 L 140.208258 38.661254 L 140.208258 19.362598 L 144.305724 19.362598 L 144.415307 21.546728 C 145.430145 19.867354 146.849964 19.008797 148.712882 19.008797 Z M 173.72648 19.008797 C 175.660865 19.008797 177.195033 19.551292 178.300396 20.650433 C 179.429581 21.754292 179.982262 23.542165 180.00132 26.065945 L 180.00132 38.661254 L 175.718039 38.661254 L 175.718039 26.136705 C 175.718039 24.721501 175.403583 23.749728 174.793727 23.263842 C 174.183872 22.777955 173.335792 22.537371 172.282838 22.537371 C 171.306117 22.537371 170.515211 22.796825 169.905355 23.339319 C 169.262149 23.905401 168.838108 24.59885 168.628471 25.429103 L 168.628471 38.661254 L 164.349954 38.661254 L 164.349954 26.174443 C 164.349954 24.811131 164.035498 23.881814 163.425642 23.339319 C 162.796729 22.815694 161.967707 22.537371 160.895695 22.537371 C 159.161419 22.537371 157.941708 23.244972 157.22227 24.683763 L 157.22227 38.661254 L 152.958047 38.661254 L 152.958047 19.362598 L 156.984045 19.362598 L 157.112686 21.376904 C 158.461038 19.791876 160.304898 19.008797 162.629971 19.008797 C 165.159918 19.008797 166.894195 19.999439 167.856622 21.957137 C 169.257384 19.999439 171.215591 19.008797 173.72648 19.008797 Z M 128.044502 22.499632 C 126.453161 22.499632 125.290624 23.131756 124.552127 24.400722 C 123.813631 25.669688 123.446765 27.146216 123.446765 28.84446 L 123.446765 29.217131 C 123.446765 30.953113 123.813631 32.448512 124.552127 33.679739 C 125.290624 34.929835 126.453161 35.54309 128.077854 35.54309 C 129.650137 35.54309 130.812674 34.929835 131.551171 33.679739 C 132.289667 32.429642 132.656533 30.953113 132.656533 29.217131 L 132.656533 28.84446 C 132.656533 27.146216 132.284903 25.650818 131.551171 24.400722 C 130.812674 23.131756 129.650137 22.499632 128.044502 22.499632 Z M 101.110812 12.045997 C 101.868367 12.045997 102.478222 12.272429 102.902262 12.701707 C 103.326302 13.130986 103.550233 13.69235 103.550233 14.343343 C 103.550233 15.013206 103.326302 15.555701 102.902262 15.984979 C 102.478222 16.414258 101.868367 16.64069 101.115577 16.64069 C 100.358022 16.64069 99.748166 16.414258 99.324126 15.984979 C 98.900086 15.555701 98.676155 14.994337 98.676155 14.343343 C 98.676155 13.668763 98.900086 13.130986 99.324126 12.701707 C 99.748166 12.272429 100.358022 12.045997 101.110812 12.045997 Z M 101.110812 12.045997 " transform="matrix(0.819867,0,0,0.828061,8.712004,17.630646)"/>
</g>
</g>
</svg>
